<?xml version="1.0" ?><svg viewBox="0 0 64 64" xmlns="http://www.w3.org/2000/svg"><defs><style>.cls-1{fill:#aa7b50;}.cls-2{fill:#bb9573;}.cls-3{fill:#e6e6e6;}.cls-4{fill:#f2f2f2;}</style></defs><title/><g data-name="Layer 25" id="Layer_25"><rect class="cls-1" height="6" width="46" x="9" y="13"/><rect class="cls-2" height="6" width="3" x="52" y="13"/><polygon class="cls-3" points="53 13 11 13 12 9 52 9 53 13"/><polygon class="cls-4" points="52 9 49 9 50 13 53 13 52 9"/><rect class="cls-1" height="4" width="36" x="14" y="5"/><rect class="cls-2" height="4" width="3" x="47" y="5"/><polygon class="cls-3" points="48 5 48 1 40 5 48 5"/><polygon class="cls-3" points="51 19 49.73 33 48.27 49 47 63 17 63 15.73 49 14.27 33 13 19 51 19"/><polygon class="cls-4" points="48 19 46.73 33 45.27 49 44 63 47 63 48.27 49 49.73 33 51 19 48 19"/><polygon class="cls-1" points="49.73 33 48.27 49 15.73 49 14.27 33 28 33 32 37 36 33 49.73 33"/><polygon class="cls-2" points="49.73 33 48.27 49 45.27 49 46.73 33 49.73 33"/><path d="M55,12H53.781L52.97,8.757A1,1,0,0,0,52,8H51V5a1,1,0,0,0-1-1H49V1A1,1,0,0,0,47.553.105L39.764,4H14a1,1,0,0,0-1,1V8H12a1,1,0,0,0-.97.757L10.219,12H9a1,1,0,0,0-1,1v6a1,1,0,0,0,1,1h3.087l1.188,13.078s0,.008,0,.013l.736,8.065L16,63.091A1,1,0,0,0,17,64H47a1,1,0,0,0,1-.909L49.99,41.156l.736-8.065c0-.005,0-.009,0-.013L51.913,20H55a1,1,0,0,0,1-1V13A1,1,0,0,0,55,12ZM47,2.618V4H44.236ZM15,6H49V8H15Zm-2.219,4H51.219l.5,2H12.281ZM48,41l-.639,7H16.643L16,41l-.636-7H27.586l3.707,3.707a1,1,0,0,0,1.414,0L36.414,34H48.632Zm-1.91,21H17.914L16.822,50H47.178Zm2.728-30H36a1,1,0,0,0-.707.293L32,35.586l-3.293-3.293A1,1,0,0,0,28,32H15.186L14.1,20h35.81ZM54,18H10V14H54Z"/></g></svg>