<?xml version="1.0" encoding="UTF-8"?>
<svg enable-background="new 0 0 135 135" version="1.1" viewBox="0 0 135 135" xml:space="preserve" xmlns="http://www.w3.org/2000/svg" xmlns:cc="http://creativecommons.org/ns#" xmlns:dc="http://purl.org/dc/elements/1.1/" xmlns:rdf="http://www.w3.org/1999/02/22-rdf-syntax-ns#"><metadata><rdf:RDF><cc:Work rdf:about=""><dc:format>image/svg+xml</dc:format><dc:type rdf:resource="http://purl.org/dc/dcmitype/StillImage"/><dc:title/></cc:Work></rdf:RDF></metadata><defs><style>.cls-1{fill:#aa7b50;}.cls-2{fill:#bb9573;}.cls-3{fill:#e6e6e6;}.cls-4{fill:#f2f2f2;}</style></defs><style type="text/css">
<![CDATA[
	.st0{fill:#465652;}
	.st1{fill:#AAB9BA;}
	.st2{fill:#47C67B;}
	.st3{fill:#AAC8D1;}
	.st4{fill:none;stroke:#E83834;stroke-width:6;stroke-linecap:round;stroke-linejoin:round;stroke-miterlimit:10;}
	.st5{fill:#7BC67B;}
	.st6{fill:#7BC7FF;}
	.st7{fill:#7C34C1;}
	.st8{fill:#7C8D96;}
	.st9{fill:#AD2707;}
	.st10{fill:#ADB8BC;}
	.st11{fill:#107510;}
	.st12{fill:#7FE5D8;}
	.st13{fill:#AF4AD1;}
	.st14{fill:#E02B7E;}
	.st15{fill:#E04038;}
	.st16{fill:#AFD7DD;}
	.st17{fill:#E0A010;}
	.st18{fill:#E0D5A4;}
	.st19{fill:#12B2B2;}
	.st20{fill:#12D66B;}
	.st21{fill:#E1A9FF;}
	.st22{fill:#1362A8;}
	.st23{fill:#E2378D;}
	.st24{fill:#E29C37;}
	.st25{fill:#E2B90E;}
	.st26{fill:#E2BF91;}
	.st27{fill:#E2CBAA;}
	.st28{fill:#14A594;}
	.st29{fill:#E4E9ED;}
	.st30{fill:#4A5D60;}
	.st31{fill:#E5B076;}
	.st32{fill:#E5B1C4;}
	.st33{fill:#E5E4C3;}
	.st34{fill:#4B6466;}
	.st35{fill:#E6FF2E;}
	.st36{fill:#18AA67;}
	.st37{fill:#E86207;}
	.st38{fill:#E8A113;}
	.st39{fill:#E8B5A6;}
	.st40{fill:#E8E8ED;}
	.st41{fill:#4E5154;}
	.st42{fill:#E9F1F4;}
	.st43{fill:#4F4B48;}
	.st44{fill:#4F74E8;}
	.st45{fill:#808E93;}
	.st46{fill:#80949B;}
	.st47{fill:#80EDAC;}
	.st48{fill:#B122E0;}
	.st49{fill:#B2C4CC;}
	.st50{fill:#83D839;}
	.st51{fill:#B3C6C6;}
	.st52{fill:none;stroke:#33363A;stroke-width:3;stroke-linecap:round;stroke-linejoin:round;stroke-miterlimit:10;}
	.st53{fill:#1A8E1C;}
	.st54{fill:#1A93D6;}
	.st55{fill:#B50B0B;}
	.st56{fill:#1AD88F;}
	.st57{fill:#B5DAF4;}
	.st58{fill:#EA7B1F;}
	.st59{fill:#EA81BD;}
	.st60{fill:#87B8D6;}
	.st61{fill:#87C3F4;}
	.st62{fill:#EAC79D;}
	.st63{fill:#EADF11;}
	.st64{fill:#EAE4C5;}
	.st65{fill:#B78094;}
	.st66{fill:#8844D8;}
	.st67{fill:#EBF4F7;}
	.st68{fill:#893015;}
	.st69{fill:#89410B;}
	.st70{fill:#899BA3;}
	.st71{fill:#EDE3B9;}
	.st72{enable-background:new    ;}
	.st73{fill:#50FF9F;}
	.st74{fill:#EEDCF4;}
	.st75{fill:#EFA37D;}
	.st76{fill:#EFA3CC;}
	.st77{fill:#EFC99A;}
	.st78{fill:#54AF79;}
	.st79{fill:#BA503A;}
	.st80{fill:#BA8663;}
	.st81{fill:#8B4FE0;}
	.st82{fill:#58ED9B;}
	.st83{fill:#BC7DFF;}
	.st84{fill:#8D9AA3;}
	.st85{fill:#BCCAD3;}
	.st86{fill:#8DE4FF;}
	.st87{fill:#20B518;}
	.st88{fill:#BF44F2;}
	.st89{fill:#21CEA1;}
	.st90{fill:#BFDAE0;}
	.st91{fill:#F0FBFC;}
	.st92{fill:#F2D9A7;}
	.st93{fill:#F2EAC9;}
	.st94{fill:#24D1AF;}
	.st95{fill:#25931C;}
	.st96{fill:#F4C4B3;}
	.st97{fill:#F4D3A2;}
	.st98{fill:#F4D647;}
	.st99{fill:#F4D7B8;}
	.st100{fill:#F4EC8E;}
	.st101{fill:#5B524D;}
	.st102{fill:#F77819;}
	.st103{fill:#F79AE1;}
	.st104{fill:#5E707A;}
	.st105{fill:#F93585;}
	.st106{fill:#F95D5D;}
	.st107{fill:#F9C19B;}
	.st108{fill:#F9CB58;}
	.st109{fill:#F9D2B2;}
	.st110{fill:#F9F07D;}
	.st111{fill:#F9F1D2;}
	.st112{fill:#F9F4B7;}
	.st113{fill:#F9F9E4;}
	.st114{fill:#5F1DAA;}
	.st115{fill:#5F9AD6;}
	.st116{fill:#C0C0C4;}
	.st117{fill:#91EA57;}
	.st118{fill:#C12727;}
	.st119{fill:#C191A0;}
	.st120{fill:#923BB7;}
	.st121{fill:#93A0A3;}
	.st122{fill:#93F9EA;}
	.st123{fill:#93FF5A;}
	.st124{fill:#C4833D;}
	.st125{fill:#95A2A5;}
	.st126{fill:#965514;}
	.st127{fill:#96562C;}
	.st128{fill:#2AF42F;}
	.st129{fill:#C5D7DD;}
	.st130{fill:#C68510;}
	.st131{fill:#C6A86D;}
	.st132{fill:#C6BB8D;}
	.st133{fill:#2C9DCE;}
	.st134{fill:#FBFCF2;}
	.st135{fill:#FC70B0;}
	.st136{fill:#FCE6C8;}
	.st137{fill:#FCF7E3;}
	.st138{fill:#C90D6B;}
	.st139{fill:#FDFEFF;}
	.st140{fill:#FDFFDC;}
	.st141{fill:#FF1A1A;}
	.st142{fill:#FF5252;}
	.st143{fill:#FF5B00;}
	.st144{fill:#FF6155;}
	.st145{fill:#FF630D;}
	.st146{fill:#FF6666;}
	.st147{fill:#FF7676;}
	.st148{fill:#FF7900;}
	.st149{fill:#FF860D;}
	.st150{fill:#FF8B00;}
	.st151{fill:#FF8F8F;}
	.st152{fill:#FF900B;}
	.st153{fill:#FF908A;}
	.st154{fill:#FF960B;}
	.st155{fill:#FF9C0D;}
	.st156{fill:#FFA9D4;}
	.st157{fill:#FFAA00;}
	.st158{fill:#FFAD40;}
	.st159{fill:#FFAF10;}
	.st160{fill:#FFB000;}
	.st161{fill:#FFBE08;}
	.st162{fill:#FFBF31;}
	.st163{fill:#FFC200;}
	.st164{fill:#FFCAE8;}
	.st165{fill:#FFCCF5;}
	.st166{fill:#FFD00B;}
	.st167{fill:#FFD039;}
	.st168{fill:#FFD400;}
	.st169{fill:#FFD833;}
	.st170{fill:#FFDB80;}
	.st171{fill:#FFDDD2;}
	.st172{fill:#FFE6D4;}
	.st173{fill:#FFE6EB;}
	.st174{fill:#FFE98D;}
	.st175{fill:#FFECD2;}
	.st176{fill:#FFF1D9;}
	.st177{fill:#FFF24D;}
	.st178{fill:#FFF3C2;}
	.st179{fill:#FFF4C7;}
	.st180{fill:#FFF800;}
	.st181{fill:#FFF80D;}
	.st182{fill:#FFF9DE;}
	.st183{fill:#FFFBD7;}
	.st184{fill:#FFFBEB;}
	.st185{fill:#FFFCC0;}
	.st186{fill:#FFFCDC;}
	.st187{fill:#FFFFFA;}
	.st188{fill:#FFFFFF;}
	.st189{fill:#63797F;}
	.st190{fill:#65E529;}
	.st191{fill:#66310E;}
	.st192{fill:#663C17;}
	.st193{fill:#9A5AE5;}
	.st194{fill:#CA30EF;}
	.st195{fill:#6892FC;}
	.st196{fill:#9CFFC4;}
	.st197{fill:#CC4306;}
	.st198{fill:#CC549E;}
	.st199{fill:#9E3256;}
	.st200{fill:#CDFFBB;}
	.st201{fill:#CE86AF;}
	.st202{fill:#CED9DD;}
		.st203{fill:none;stroke:#33363A;stroke-width:3;stroke-linecap:round;stroke-linejoin:round;stroke-miterlimit:10;stroke-dasharray:6;}
	.st204{fill:#CFE1E2;}
	.st205{fill:#33363A;}
	.st206{fill:#34C166;}
	.st207{fill:#364B5B;}
	.st208{fill:#3662CE;}
	.st209{fill:#36C6FF;}
	.st210{fill:#6ADB9A;}
	.st211{fill:#6D5C4D;}
	.st212{fill:#6EBDF9;}
	.st213{fill:#0031FF;}
	.st214{fill:#0062FF;}
	.st215{fill:#0068FF;}
	.st216{fill:#0086FF;}
	.st217{fill:#009BE8;}
	.st218{fill:#00AAFF;}
	.st219{fill:#D271FF;}
	.st220{fill:#D363A9;}
	.st221{fill:#D3964C;}
	.st222{fill:#D3DFE2;}
	.st223{fill:#D3E0E2;}
	.st224{fill:#D3EFF4;}
	.st225{fill:#063B66;}
	.st226{fill:#D60909;}
	.st227{fill:#D61D1D;}
	.st228{fill:#D7F0FF;}
	.st229{fill:#09B285;}
	.st230{fill:#D8D593;}
	.st231{fill:#D8E2EA;}
	.st232{fill:#D8E5EA;}
	.st233{fill:#3E5054;}
	.st234{fill:#D988FF;}
	.st235{fill:#D9E7E8;}
	.st236{fill:#702252;}
	.st237{fill:#70D3E0;}
	.st238{fill:#A02FF2;}
	.st239{fill:#A2F255;}
	.st240{fill:#A35616;}
	.st241{fill:#A3CCCC;}
	.st242{fill:#0A6ADD;}
	.st243{fill:#A5145D;}
	.st244{fill:#A57555;}
	.st245{fill:#77D6FC;}
	.st246{fill:#7815CE;}
	.st247{fill:#A7BBC1;}
	.st248{fill:#DBD279;}
	.st249{fill:#0D5C9E;}
	.st250{fill:#A83C11;}
	.st251{fill:#A8633D;}
	.st252{fill:#A8A3E5;}
	.st253{fill:#DCE6EA;}
	.st254{fill:#DCE7EA;}
	.st255{fill:#A962E8;}
	.st256{fill:#DD2466;}
	.st257{fill:#DDC38A;}
	.st258{fill:#DDD2B1;}
	.st259{fill:#DFE7E8;}
	.st260{fill:#42B1E8;}
	.st261{fill:#436377;}
	.st262{fill:#43B530;}
]]>
</style><g transform="translate(-.57203 -2.5742)"><polygon class="st168" points="50.344 65.7 90.474 29.792 77.437 29.792 94.294 9.536 68.299 9.536 53.975 34.675 65.614 34.675" fill="#ffd400"/><polygon class="st160" points="65.614 34.675 50.344 65.7 80.733 38.507 70.604 38.507 77.856 29.792 77.437 29.792 87.04 18.251 63.333 18.251 53.975 34.675" fill="#ffb000"/><path class="st205" d="m50.344 67.2c-0.318 0-0.638-0.101-0.906-0.305-0.572-0.435-0.757-1.213-0.439-1.857l14.206-28.863h-9.229c-0.534 0-1.028-0.284-1.297-0.746s-0.271-1.032-7e-3 -1.496l14.323-25.139c0.268-0.469 0.765-0.758 1.304-0.758h25.995c0.582 0 1.111 0.337 1.358 0.863 0.247 0.527 0.167 1.149-0.205 1.597l-14.81 17.796h9.837c0.622 0 1.18 0.384 1.401 0.965s0.062 1.238-0.401 1.653l-40.13 35.908c-0.283 0.254-0.642 0.382-1 0.382zm6.212-34.025h9.059c0.519 0 1 0.268 1.273 0.707 0.273 0.44 0.301 0.99 0.072 1.455l-11.858 24.093 31.446-28.138h-9.111c-0.582 0-1.111-0.337-1.358-0.863-0.247-0.527-0.167-1.149 0.205-1.597l14.811-17.796h-21.924z" fill="#33363a"/><path class="st180" d="m116.71 88.022c0 20.676-22.032 37.441-49.209 37.441-27.178 0-49.209-16.766-49.209-37.441 0-20.68 22.031-45.459 49.209-45.459 27.177 0 49.209 24.78 49.209 45.459z" fill="#fff800"/><path class="st168" d="m116.71 88.022c0 20.676-22.032 37.441-49.209 37.441-27.178 0-49.209-16.766-49.209-37.441 0-20.68 22.031-34.928 49.209-34.928 27.177 1e-3 49.209 14.249 49.209 34.928z" fill="#ffd400"/><path class="st180" d="m77.979 78.224c0 1.393-4.691 1.643-10.479 1.643s-10.479-0.25-10.479-1.643c0-1.395 4.691-5.037 10.479-5.037s10.479 3.642 10.479 5.037z" fill="#fff800"/><path class="st160" d="m116.71 88.022c0 20.676-22.032 37.441-49.209 37.441-27.178 0-49.209-16.766-49.209-37.441 0-20.682 6.261 18.34 49.209 18.34s49.209-39.021 49.209-18.34z" fill="#ffb000"/><path class="st205" d="m67.5 126.96c-27.961 0-50.709-17.469-50.709-38.941 0-21.27 22.619-46.959 50.709-46.959 13.041 0 25.772 5.472 35.849 15.406 9.305 9.174 14.86 20.97 14.86 31.553 0 21.472-22.748 38.941-50.709 38.941zm0-82.901c-26.428 0-47.709 24.048-47.709 43.959 0 19.818 21.402 35.941 47.709 35.941s47.709-16.123 47.709-35.941c0-19.911-21.281-43.959-47.709-43.959z" fill="#33363a"/><path class="st168" d="m12.807 50.882c6.385 10.541 15.331 16.738 23.985 17.811 1.492-10.754-0.872-23.232-7.258-33.773-6.386-10.544-15.332-16.741-23.985-17.81-1.492 10.75 0.872 23.231 7.258 33.772z" fill="#ffd400"/><path class="st160" d="m5.549 17.11c-1.492 10.75 0.872 23.23 7.258 33.771 6.385 10.541 15.331 16.738 23.985 17.811z" fill="#ffb000"/><path class="st205" d="m28.453 67.597c-0.227 0-0.455-0.051-0.671-0.159-6.298-3.156-11.92-8.612-16.259-15.778-6.352-10.485-9.071-23.153-7.46-34.755 0.112-0.812 0.853-1.383 1.669-1.282 9.525 1.176 18.668 7.926 25.085 18.52 3.786 6.25 6.338 13.43 7.379 20.764 0.116 0.82-0.454 1.58-1.274 1.696-0.817 0.11-1.579-0.454-1.696-1.274-0.984-6.937-3.396-13.725-6.975-19.631-5.595-9.237-13.325-15.304-21.4-16.862-1.089 10.51 1.514 21.819 7.239 31.268 4.046 6.683 9.245 11.748 15.036 14.651 0.741 0.371 1.04 1.272 0.669 2.013-0.263 0.526-0.792 0.829-1.342 0.829z" fill="#33363a"/><path class="st205" d="m21.672 25.169c-5.004-4.619-10.622-7.379-16.123-8.059-1.033 7.45-0.212 15.729 2.512 23.616 6.639-2.053 15.421 3.47 13.611-15.557z" fill="#33363a"/><path class="st168" d="m122.19 50.882c-6.385 10.541-15.331 16.738-23.985 17.811-1.492-10.754 0.871-23.232 7.258-33.773 6.386-10.543 15.332-16.74 23.986-17.809 1.491 10.749-0.872 23.23-7.259 33.771z" fill="#ffd400"/><path class="st160" d="m129.45 17.11c1.491 10.75-0.872 23.23-7.259 33.771-6.385 10.541-15.331 16.738-23.985 17.811z" fill="#ffb000"/><path class="st205" d="m106.55 67.597c-0.55 0-1.079-0.303-1.342-0.828-0.371-0.74-0.072-1.642 0.669-2.013 5.789-2.901 10.988-7.968 15.036-14.651 5.725-9.447 8.328-20.758 7.24-31.271-8.076 1.559-15.807 7.625-21.401 16.862-3.579 5.909-5.991 12.697-6.974 19.631-0.116 0.819-0.864 1.389-1.696 1.274-0.82-0.116-1.391-0.876-1.274-1.696 1.039-7.33 3.591-14.511 7.378-20.764 6.417-10.594 15.561-17.344 25.086-18.52 0.812-0.1 1.557 0.47 1.669 1.282 1.61 11.604-1.109 24.271-7.461 34.755-4.341 7.167-9.963 12.623-16.259 15.778-0.216 0.11-0.446 0.161-0.671 0.161z" fill="#33363a"/><path class="st205" d="m113.33 25.169c5.005-4.619 10.622-7.379 16.124-8.059 1.033 7.449 0.212 15.729-2.512 23.615-6.64-2.052-15.423 3.471-13.612-15.556z" fill="#33363a"/><circle class="st141" cx="36.499" cy="91.384" r="7.013" fill="#ff1a1a"/><path class="st227" d="m43.512 91.384c0 3.871-3.14 7.012-7.013 7.012-3.874 0-7.014-3.141-7.014-7.012" fill="#d61d1d"/><circle class="st141" cx="98.501" cy="91.384" r="7.014" fill="#ff1a1a"/><path class="st227" d="m105.52 91.384c0 3.871-3.141 7.012-7.014 7.012s-7.014-3.141-7.014-7.012" fill="#d61d1d"/><g fill="#33363a"><polygon class="st205" points="67.5 82.784 71.419 80.823 63.582 80.823"/><path class="st205" d="m67.5 84.284c-0.23 0-0.46-0.053-0.671-0.158l-3.918-1.961c-0.622-0.312-0.949-1.01-0.789-1.687s0.765-1.155 1.46-1.155h7.837c0.695 0 1.3 0.479 1.46 1.155s-0.167 1.375-0.789 1.687l-3.919 1.961c-0.211 0.105-0.441 0.158-0.671 0.158z"/></g><path class="st205" d="m63.41 90.978h-1.457c-3.083 0-5.591-2.507-5.591-5.588 0-0.828 0.672-1.5 1.5-1.5s1.5 0.672 1.5 1.5c0 1.427 1.162 2.588 2.591 2.588h1.457c1.428 0 2.589-1.161 2.589-2.588v-1.455c0-0.828 0.672-1.5 1.5-1.5s1.5 0.672 1.5 1.5v1.455c0 3.081-2.507 5.588-5.589 5.588z" fill="#33363a"/><path class="st205" d="m73.047 90.978h-1.456c-3.082 0-5.59-2.507-5.59-5.588v-1.455c0-0.828 0.672-1.5 1.5-1.5s1.5 0.672 1.5 1.5v1.455c0 1.427 1.162 2.588 2.59 2.588h1.456c1.429 0 2.591-1.161 2.591-2.588 0-0.828 0.672-1.5 1.5-1.5s1.5 0.672 1.5 1.5c0 3.081-2.508 5.588-5.591 5.588z" fill="#33363a"/><path class="st211" d="m51.338 73.753c0 4.449-3.605 8.051-8.053 8.051-4.446 0-8.051-3.602-8.051-8.051 0-4.447 3.604-8.053 8.051-8.053s8.053 3.606 8.053 8.053z" fill="#6d5c4d"/><path class="st205" d="m51.338 73.753c0 4.449-3.605 1.662-8.053 1.662-4.446 0-8.051 2.787-8.051-1.662 0-4.447 3.604-8.053 8.051-8.053s8.053 3.606 8.053 8.053z" fill="#33363a"/><path class="st205" d="m43.285 83.304c-5.267 0-9.551-4.284-9.551-9.551 0-5.268 4.284-9.553 9.551-9.553 5.268 0 9.553 4.285 9.553 9.553 0 5.267-4.285 9.551-9.553 9.551zm0-16.104c-3.612 0-6.551 2.939-6.551 6.553 0 3.612 2.938 6.551 6.551 6.551s6.553-2.938 6.553-6.551-2.94-6.553-6.553-6.553z" fill="#33363a"/><circle class="st188" cx="39.282" cy="71.136" r="3.281" fill="#fff"/><path class="st205" d="m39.281 75.915c-2.636 0-4.78-2.144-4.78-4.779s2.145-4.779 4.78-4.779c2.637 0 4.781 2.144 4.781 4.779s-2.144 4.779-4.781 4.779zm0-6.559c-0.981 0-1.78 0.798-1.78 1.779s0.799 1.779 1.78 1.779c0.982 0 1.781-0.798 1.781-1.779s-0.798-1.779-1.781-1.779z" fill="#33363a"/><path class="st211" d="m99.765 73.753c0 4.449-3.604 8.051-8.051 8.051s-8.052-3.602-8.052-8.051c0-4.447 3.604-8.053 8.052-8.053 4.446 0 8.051 3.606 8.051 8.053z" fill="#6d5c4d"/><path class="st205" d="m99.765 73.753c0 4.449-3.604 1.662-8.051 1.662s-8.052 2.787-8.052-1.662c0-4.447 3.604-8.053 8.052-8.053 4.446 0 8.051 3.606 8.051 8.053z" fill="#33363a"/><path class="st205" d="m91.714 83.304c-5.267 0-9.552-4.284-9.552-9.551 0-5.268 4.285-9.553 9.552-9.553s9.551 4.285 9.551 9.553c0 5.267-4.285 9.551-9.551 9.551zm0-16.104c-3.612 0-6.552 2.939-6.552 6.553 0 3.612 2.939 6.551 6.552 6.551s6.551-2.938 6.551-6.551-2.939-6.553-6.551-6.553z" fill="#33363a"/><circle class="st188" cx="87.709" cy="71.136" r="3.28" fill="#fff"/><path class="st205" d="m87.71 75.915c-2.637 0-4.781-2.144-4.781-4.779s2.145-4.779 4.781-4.779 4.779 2.144 4.779 4.779-2.143 4.779-4.779 4.779zm0-6.559c-0.982 0-1.781 0.798-1.781 1.779s0.799 1.779 1.781 1.779c0.981 0 1.779-0.798 1.779-1.779s-0.798-1.779-1.779-1.779z" fill="#33363a"/><g transform="matrix(.68717 0 0 .68717 95.895 87.948)" data-name="Layer 25"><rect class="cls-1" x="9" y="13" width="46" height="6" fill="#aa7b50"/><rect class="cls-2" x="52" y="13" width="3" height="6" fill="#bb9573"/><polygon class="cls-3" points="53 13 11 13 12 9 52 9" fill="#e6e6e6"/><polygon class="cls-4" points="52 9 49 9 50 13 53 13" fill="#f2f2f2"/><rect class="cls-1" x="14" y="5" width="36" height="4" fill="#aa7b50"/><rect class="cls-2" x="47" y="5" width="3" height="4" fill="#bb9573"/><polygon class="cls-3" points="48 5 48 1 40 5" fill="#e6e6e6"/><polygon class="cls-3" points="17 63 15.73 49 14.27 33 13 19 51 19 49.73 33 48.27 49 47 63" fill="#e6e6e6"/><polygon class="cls-4" points="47 63 48.27 49 49.73 33 51 19 48 19 46.73 33 45.27 49 44 63" fill="#f2f2f2"/><polygon class="cls-1" points="32 37 36 33 49.73 33 48.27 49 15.73 49 14.27 33 28 33" fill="#aa7b50"/><polygon class="cls-2" points="49.73 33 48.27 49 45.27 49 46.73 33" fill="#bb9573"/><path d="m55 12h-1.219l-0.811-3.243a1 1 0 0 0 -0.97 -0.757h-1v-3a1 1 0 0 0 -1 -1h-1v-3a1 1 0 0 0 -1.447 -0.895l-7.789 3.895h-25.764a1 1 0 0 0 -1 1v3h-1a1 1 0 0 0 -0.97 0.757l-0.811 3.243h-1.219a1 1 0 0 0 -1 1v6a1 1 0 0 0 1 1h3.087l1.188 13.078v0.013l0.736 8.065 1.989 21.935a1 1 0 0 0 1 0.909h30a1 1 0 0 0 1 -0.909l1.99-21.935 0.736-8.065v-0.013l1.187-13.078h3.087a1 1 0 0 0 1 -1v-6a1 1 0 0 0 -1 -1zm-8-9.382v1.382h-2.764zm-32 3.382h34v2h-34zm-2.219 4h38.438l0.5 2h-39.438zm35.219 31-0.639 7h-30.718l-0.643-7-0.636-7h12.222l3.707 3.707a1 1 0 0 0 1.414 0l3.707-3.707h12.218zm-1.91 21h-28.176l-1.092-12h30.356zm2.728-30h-12.818a1 1 0 0 0 -0.707 0.293l-3.293 3.293-3.293-3.293a1 1 0 0 0 -0.707 -0.293h-12.814l-1.086-12h35.81zm5.182-14h-44v-4h44z"/></g><g transform="matrix(.68717 0 0 .68717 -4.1864 88.635)" data-name="Layer 25"><rect class="cls-1" x="9" y="13" width="46" height="6" fill="#aa7b50"/><rect class="cls-2" x="52" y="13" width="3" height="6" fill="#bb9573"/><polygon class="cls-3" points="11 13 12 9 52 9 53 13" fill="#e6e6e6"/><polygon class="cls-4" points="49 9 50 13 53 13 52 9" fill="#f2f2f2"/><rect class="cls-1" x="14" y="5" width="36" height="4" fill="#aa7b50"/><rect class="cls-2" x="47" y="5" width="3" height="4" fill="#bb9573"/><polygon class="cls-3" points="40 5 48 5 48 1" fill="#e6e6e6"/><polygon class="cls-3" points="49.73 33 48.27 49 47 63 17 63 15.73 49 14.27 33 13 19 51 19" fill="#e6e6e6"/><polygon class="cls-4" points="46.73 33 45.27 49 44 63 47 63 48.27 49 49.73 33 51 19 48 19" fill="#f2f2f2"/><polygon class="cls-1" points="14.27 33 28 33 32 37 36 33 49.73 33 48.27 49 15.73 49" fill="#aa7b50"/><polygon class="cls-2" points="48.27 49 45.27 49 46.73 33 49.73 33" fill="#bb9573"/><path d="m55 12h-1.219l-0.811-3.243a1 1 0 0 0 -0.97 -0.757h-1v-3a1 1 0 0 0 -1 -1h-1v-3a1 1 0 0 0 -1.447 -0.895l-7.789 3.895h-25.764a1 1 0 0 0 -1 1v3h-1a1 1 0 0 0 -0.97 0.757l-0.811 3.243h-1.219a1 1 0 0 0 -1 1v6a1 1 0 0 0 1 1h3.087l1.188 13.078v0.013l0.736 8.065 1.989 21.935a1 1 0 0 0 1 0.909h30a1 1 0 0 0 1 -0.909l1.99-21.935 0.736-8.065v-0.013l1.187-13.078h3.087a1 1 0 0 0 1 -1v-6a1 1 0 0 0 -1 -1zm-8-9.382v1.382h-2.764zm-32 3.382h34v2h-34zm-2.219 4h38.438l0.5 2h-39.438zm35.219 31-0.639 7h-30.718l-0.643-7-0.636-7h12.222l3.707 3.707a1 1 0 0 0 1.414 0l3.707-3.707h12.218zm-1.91 21h-28.176l-1.092-12h30.356zm2.728-30h-12.818a1 1 0 0 0 -0.707 0.293l-3.293 3.293-3.293-3.293a1 1 0 0 0 -0.707 -0.293h-12.814l-1.086-12h35.81zm5.182-14h-44v-4h44z"/></g><g transform="matrix(.68717 0 0 .68717 44.782 91.149)" data-name="Layer 25"><rect class="cls-1" x="9" y="13" width="46" height="6" fill="#aa7b50"/><rect class="cls-2" x="52" y="13" width="3" height="6" fill="#bb9573"/><polygon class="cls-3" points="11 13 12 9 52 9 53 13" fill="#e6e6e6"/><polygon class="cls-4" points="49 9 50 13 53 13 52 9" fill="#f2f2f2"/><rect class="cls-1" x="14" y="5" width="36" height="4" fill="#aa7b50"/><rect class="cls-2" x="47" y="5" width="3" height="4" fill="#bb9573"/><polygon class="cls-3" points="48 5 48 1 40 5" fill="#e6e6e6"/><polygon class="cls-3" points="15.73 49 14.27 33 13 19 51 19 49.73 33 48.27 49 47 63 17 63" fill="#e6e6e6"/><polygon class="cls-4" points="48.27 49 49.73 33 51 19 48 19 46.73 33 45.27 49 44 63 47 63" fill="#f2f2f2"/><polygon class="cls-1" points="49.73 33 48.27 49 15.73 49 14.27 33 28 33 32 37 36 33" fill="#aa7b50"/><polygon class="cls-2" points="48.27 49 45.27 49 46.73 33 49.73 33" fill="#bb9573"/><path d="m55 12h-1.219l-0.811-3.243a1 1 0 0 0 -0.97 -0.757h-1v-3a1 1 0 0 0 -1 -1h-1v-3a1 1 0 0 0 -1.447 -0.895l-7.789 3.895h-25.764a1 1 0 0 0 -1 1v3h-1a1 1 0 0 0 -0.97 0.757l-0.811 3.243h-1.219a1 1 0 0 0 -1 1v6a1 1 0 0 0 1 1h3.087l1.188 13.078v0.013l0.736 8.065 1.989 21.935a1 1 0 0 0 1 0.909h30a1 1 0 0 0 1 -0.909l1.99-21.935 0.736-8.065v-0.013l1.187-13.078h3.087a1 1 0 0 0 1 -1v-6a1 1 0 0 0 -1 -1zm-8-9.382v1.382h-2.764zm-32 3.382h34v2h-34zm-2.219 4h38.438l0.5 2h-39.438zm35.219 31-0.639 7h-30.718l-0.643-7-0.636-7h12.222l3.707 3.707a1 1 0 0 0 1.414 0l3.707-3.707h12.218zm-1.91 21h-28.176l-1.092-12h30.356zm2.728-30h-12.818a1 1 0 0 0 -0.707 0.293l-3.293 3.293-3.293-3.293a1 1 0 0 0 -0.707 -0.293h-12.814l-1.086-12h35.81zm5.182-14h-44v-4h44z"/></g></g></svg>
