<?xml version="1.0" encoding="UTF-8"?>
<!DOCTYPE svg PUBLIC "-//W3C//DTD SVG 1.1//EN" "http://www.w3.org/Graphics/SVG/1.1/DTD/svg11.dtd">
<svg xmlns:xlink="http://www.w3.org/1999/xlink" id="f001-Layer_1" enable-background="new 0 0 283.965 244.419" version="1.1" width="35.52837em" xml:space="preserve" viewBox="0.00000 0.00000 284.227 244.419" height="30.55238em" xmlns="http://www.w3.org/2000/svg" x="0px" y="0px">
<defs>
<path d="M 471 -123C 430 -84 404 -65 392 -65C 385 -65 385 -79 390 -106C 417 -250 438 -356 457 -429L 455 -433C 446 -433 433 -435 416 -439C 387 -445 363 -448 344 -448C 285 -448 209 -419 152 -376C 72 -315 23 -208 23 -103C 23 -31 50 12 85 12C 113 12 146 -3 185 -34C 246 -81 294 -131 329 -183L 331 -183L 309 -81C 296 -19 301 12 326 12C 340 12 363 2 394 -17C 425 -37 455 -64 483 -97L 471 -123M 374 -387C 365 -331 356 -290 345 -261C 330 -226 297 -182 246 -129C 195 -76 160 -50 139 -50C 122 -50 110 -75 110 -118C 110 -171 120 -222 140 -270C 160 -319 186 -355 218 -379C 239 -394 267 -402 301 -402C 328 -402 353 -397 374 -387" id="f001-glyph-0-3723"/><path d="M 384 -27C 339 -30 311 -36 301 -45C 292 -54 287 -77 287 -114L 287 -635C 227 -610 168 -593 109 -583L 109 -559L 157 -557C 178 -556 192 -553 197 -546C 202 -539 205 -523 205 -499L 205 -114C 205 -77 200 -54 190 -45C 181 -36 154 -30 109 -27L 109 0L 384 0L 384 -27" id="f001-glyph-1-21"/><path d="M 471 -123C 430 -84 404 -65 392 -65C 385 -65 385 -79 390 -106C 417 -250 438 -356 457 -429L 455 -433C 446 -433 433 -435 416 -439C 387 -445 363 -448 344 -448C 285 -448 209 -419 152 -376C 72 -315 23 -208 23 -103C 23 -31 50 12 85 12C 113 12 146 -3 185 -34C 246 -81 294 -131 329 -183L 331 -183L 309 -81C 296 -19 301 12 326 12C 340 12 363 2 394 -17C 425 -37 455 -64 483 -97L 471 -123M 374 -387C 365 -331 356 -290 345 -261C 330 -226 297 -182 246 -129C 195 -76 160 -50 139 -50C 122 -50 110 -75 110 -118C 110 -171 120 -222 140 -270C 160 -319 186 -355 218 -379C 239 -394 267 -402 301 -402C 328 -402 353 -397 374 -387" id="f001-glyph-2-3723"/><path d="M 384 -27C 339 -30 311 -36 301 -45C 292 -54 287 -77 287 -114L 287 -635C 227 -610 168 -593 109 -583L 109 -559L 157 -557C 178 -556 192 -553 197 -546C 202 -539 205 -523 205 -499L 205 -114C 205 -77 200 -54 190 -45C 181 -36 154 -30 109 -27L 109 0L 384 0L 384 -27" id="f001-glyph-3-21"/><path d="M 412 -140C 397 -109 384 -90 373 -83C 362 -76 343 -73 315 -73L 129 -73L 270 -222C 319 -275 353 -319 372 -352C 392 -387 402 -425 402 -466C 402 -516 385 -557 352 -588C 319 -619 279 -635 234 -635C 181 -635 136 -615 99 -576L 42 -495L 64 -475C 105 -537 150 -568 201 -568C 274 -568 318 -519 318 -435C 318 -362 278 -293 193 -193C 160 -154 108 -98 32 -23L 32 0L 405 0L 440 -131L 412 -140" id="f001-glyph-3-22"/><path d="M 471 -123C 430 -84 404 -65 392 -65C 385 -65 385 -79 390 -106C 417 -250 438 -356 457 -429L 455 -433C 446 -433 433 -435 416 -439C 387 -445 363 -448 344 -448C 285 -448 209 -419 152 -376C 72 -315 23 -208 23 -103C 23 -31 50 12 85 12C 113 12 146 -3 185 -34C 246 -81 294 -131 329 -183L 331 -183L 309 -81C 296 -19 301 12 326 12C 340 12 363 2 394 -17C 425 -37 455 -64 483 -97L 471 -123M 374 -387C 365 -331 356 -290 345 -261C 330 -226 297 -182 246 -129C 195 -76 160 -50 139 -50C 122 -50 110 -75 110 -118C 110 -171 120 -222 140 -270C 160 -319 186 -355 218 -379C 239 -394 267 -402 301 -402C 328 -402 353 -397 374 -387" id="f001-glyph-4-3723"/><path d="M 412 -140C 397 -109 384 -90 373 -83C 362 -76 343 -73 315 -73L 129 -73L 270 -222C 319 -275 353 -319 372 -352C 392 -387 402 -425 402 -466C 402 -516 385 -557 352 -588C 319 -619 279 -635 234 -635C 181 -635 136 -615 99 -576L 42 -495L 64 -475C 105 -537 150 -568 201 -568C 274 -568 318 -519 318 -435C 318 -362 278 -293 193 -193C 160 -154 108 -98 32 -23L 32 0L 405 0L 440 -131L 412 -140" id="f001-glyph-5-22"/><path d="M 384 -27C 339 -30 311 -36 301 -45C 292 -54 287 -77 287 -114L 287 -635C 227 -610 168 -593 109 -583L 109 -559L 157 -557C 178 -556 192 -553 197 -546C 202 -539 205 -523 205 -499L 205 -114C 205 -77 200 -54 190 -45C 181 -36 154 -30 109 -27L 109 0L 384 0L 384 -27" id="f001-glyph-5-21"/><path d="M 471 -123C 430 -84 404 -65 392 -65C 385 -65 385 -79 390 -106C 417 -250 438 -356 457 -429L 455 -433C 446 -433 433 -435 416 -439C 387 -445 363 -448 344 -448C 285 -448 209 -419 152 -376C 72 -315 23 -208 23 -103C 23 -31 50 12 85 12C 113 12 146 -3 185 -34C 246 -81 294 -131 329 -183L 331 -183L 309 -81C 296 -19 301 12 326 12C 340 12 363 2 394 -17C 425 -37 455 -64 483 -97L 471 -123M 374 -387C 365 -331 356 -290 345 -261C 330 -226 297 -182 246 -129C 195 -76 160 -50 139 -50C 122 -50 110 -75 110 -118C 110 -171 120 -222 140 -270C 160 -319 186 -355 218 -379C 239 -394 267 -402 301 -402C 328 -402 353 -397 374 -387" id="f001-glyph-6-3723"/><path d="M 412 -140C 397 -109 384 -90 373 -83C 362 -76 343 -73 315 -73L 129 -73L 270 -222C 319 -275 353 -319 372 -352C 392 -387 402 -425 402 -466C 402 -516 385 -557 352 -588C 319 -619 279 -635 234 -635C 181 -635 136 -615 99 -576L 42 -495L 64 -475C 105 -537 150 -568 201 -568C 274 -568 318 -519 318 -435C 318 -362 278 -293 193 -193C 160 -154 108 -98 32 -23L 32 0L 405 0L 440 -131L 412 -140" id="f001-glyph-7-22"/><path d="M 471 -123C 430 -84 404 -65 392 -65C 385 -65 385 -79 390 -106C 417 -250 438 -356 457 -429L 455 -433C 446 -433 433 -435 416 -439C 387 -445 363 -448 344 -448C 285 -448 209 -419 152 -376C 72 -315 23 -208 23 -103C 23 -31 50 12 85 12C 113 12 146 -3 185 -34C 246 -81 294 -131 329 -183L 331 -183L 309 -81C 296 -19 301 12 326 12C 340 12 363 2 394 -17C 425 -37 455 -64 483 -97L 471 -123M 374 -387C 365 -331 356 -290 345 -261C 330 -226 297 -182 246 -129C 195 -76 160 -50 139 -50C 122 -50 110 -75 110 -118C 110 -171 120 -222 140 -270C 160 -319 186 -355 218 -379C 239 -394 267 -402 301 -402C 328 -402 353 -397 374 -387" id="f001-glyph-8-3723"/><path d="M 412 -140C 397 -109 384 -90 373 -83C 362 -76 343 -73 315 -73L 129 -73L 270 -222C 319 -275 353 -319 372 -352C 392 -387 402 -425 402 -466C 402 -516 385 -557 352 -588C 319 -619 279 -635 234 -635C 181 -635 136 -615 99 -576L 42 -495L 64 -475C 105 -537 150 -568 201 -568C 274 -568 318 -519 318 -435C 318 -362 278 -293 193 -193C 160 -154 108 -98 32 -23L 32 0L 405 0L 440 -131L 412 -140" id="f001-glyph-9-22"/><path d="M 479 -114C 446 -82 422 -66 409 -66C 401 -66 401 -72 406 -97C 417 -148 432 -213 453 -297C 477 -386 465 -428 454 -439C 448 -445 439 -448 428 -448C 410 -448 385 -439 354 -422C 327 -406 295 -382 258 -350C 223 -321 192 -286 161 -247L 159 -247L 183 -345C 200 -414 196 -448 173 -448C 142 -448 82 -410 23 -351L 38 -325C 71 -356 93 -371 105 -371C 113 -371 114 -359 109 -336L 25 4L 31 12C 47 5 72 -2 107 -9C 118 -61 130 -113 145 -168C 173 -213 211 -260 260 -308C 309 -357 345 -381 370 -381C 387 -381 391 -374 378 -305L 329 -95C 311 -24 316 12 345 12C 376 12 435 -26 495 -86L 479 -114" id="f001-glyph-9-3735"/><path d="M 471 -123C 430 -84 404 -65 392 -65C 385 -65 385 -79 390 -106C 417 -250 438 -356 457 -429L 455 -433C 446 -433 433 -435 416 -439C 387 -445 363 -448 344 -448C 285 -448 209 -419 152 -376C 72 -315 23 -208 23 -103C 23 -31 50 12 85 12C 113 12 146 -3 185 -34C 246 -81 294 -131 329 -183L 331 -183L 309 -81C 296 -19 301 12 326 12C 340 12 363 2 394 -17C 425 -37 455 -64 483 -97L 471 -123M 374 -387C 365 -331 356 -290 345 -261C 330 -226 297 -182 246 -129C 195 -76 160 -50 139 -50C 122 -50 110 -75 110 -118C 110 -171 120 -222 140 -270C 160 -319 186 -355 218 -379C 239 -394 267 -402 301 -402C 328 -402 353 -397 374 -387" id="f001-glyph-10-3723"/><path d="M 394 -607C 394 -635 377 -655 350 -655C 319 -655 294 -625 294 -594C 294 -566 314 -546 339 -546C 371 -546 394 -574 394 -607M 360 -349C 373 -415 370 -448 351 -448C 336 -448 312 -438 279 -417C 246 -396 214 -369 183 -338L 197 -313C 238 -349 264 -367 276 -367C 280 -364 282 -360 281 -355C 281 -350 279 -336 275 -313C 240 -125 212 13 189 102C 173 165 151 197 124 197C 109 197 91 190 70 177C 63 172 54 174 44 183C 30 197 23 212 23 228C 23 244 46 261 67 261C 96 261 134 240 181 197C 237 147 278 59 303 -66L 360 -349" id="f001-glyph-11-3731"/><path d="M 384 -27C 339 -30 311 -36 301 -45C 292 -54 287 -77 287 -114L 287 -635C 227 -610 168 -593 109 -583L 109 -559L 157 -557C 178 -556 192 -553 197 -546C 202 -539 205 -523 205 -499L 205 -114C 205 -77 200 -54 190 -45C 181 -36 154 -30 109 -27L 109 0L 384 0L 384 -27" id="f001-glyph-12-21"/><path d="M 471 -123C 430 -84 404 -65 392 -65C 385 -65 385 -79 390 -106C 417 -250 438 -356 457 -429L 455 -433C 446 -433 433 -435 416 -439C 387 -445 363 -448 344 -448C 285 -448 209 -419 152 -376C 72 -315 23 -208 23 -103C 23 -31 50 12 85 12C 113 12 146 -3 185 -34C 246 -81 294 -131 329 -183L 331 -183L 309 -81C 296 -19 301 12 326 12C 340 12 363 2 394 -17C 425 -37 455 -64 483 -97L 471 -123M 374 -387C 365 -331 356 -290 345 -261C 330 -226 297 -182 246 -129C 195 -76 160 -50 139 -50C 122 -50 110 -75 110 -118C 110 -171 120 -222 140 -270C 160 -319 186 -355 218 -379C 239 -394 267 -402 301 -402C 328 -402 353 -397 374 -387" id="f001-glyph-13-3723"/><path d="M 394 -607C 394 -635 377 -655 350 -655C 319 -655 294 -625 294 -594C 294 -566 314 -546 339 -546C 371 -546 394 -574 394 -607M 360 -349C 373 -415 370 -448 351 -448C 336 -448 312 -438 279 -417C 246 -396 214 -369 183 -338L 197 -313C 238 -349 264 -367 276 -367C 280 -364 282 -360 281 -355C 281 -350 279 -336 275 -313C 240 -125 212 13 189 102C 173 165 151 197 124 197C 109 197 91 190 70 177C 63 172 54 174 44 183C 30 197 23 212 23 228C 23 244 46 261 67 261C 96 261 134 240 181 197C 237 147 278 59 303 -66L 360 -349" id="f001-glyph-14-3731"/><path d="M 412 -140C 397 -109 384 -90 373 -83C 362 -76 343 -73 315 -73L 129 -73L 270 -222C 319 -275 353 -319 372 -352C 392 -387 402 -425 402 -466C 402 -516 385 -557 352 -588C 319 -619 279 -635 234 -635C 181 -635 136 -615 99 -576L 42 -495L 64 -475C 105 -537 150 -568 201 -568C 274 -568 318 -519 318 -435C 318 -362 278 -293 193 -193C 160 -154 108 -98 32 -23L 32 0L 405 0L 440 -131L 412 -140" id="f001-glyph-15-22"/><path d="M 471 -123C 430 -84 404 -65 392 -65C 385 -65 385 -79 390 -106C 417 -250 438 -356 457 -429L 455 -433C 446 -433 433 -435 416 -439C 387 -445 363 -448 344 -448C 285 -448 209 -419 152 -376C 72 -315 23 -208 23 -103C 23 -31 50 12 85 12C 113 12 146 -3 185 -34C 246 -81 294 -131 329 -183L 331 -183L 309 -81C 296 -19 301 12 326 12C 340 12 363 2 394 -17C 425 -37 455 -64 483 -97L 471 -123M 374 -387C 365 -331 356 -290 345 -261C 330 -226 297 -182 246 -129C 195 -76 160 -50 139 -50C 122 -50 110 -75 110 -118C 110 -171 120 -222 140 -270C 160 -319 186 -355 218 -379C 239 -394 267 -402 301 -402C 328 -402 353 -397 374 -387" id="f001-glyph-16-3723"/><path d="M 394 -607C 394 -635 377 -655 350 -655C 319 -655 294 -625 294 -594C 294 -566 314 -546 339 -546C 371 -546 394 -574 394 -607M 360 -349C 373 -415 370 -448 351 -448C 336 -448 312 -438 279 -417C 246 -396 214 -369 183 -338L 197 -313C 238 -349 264 -367 276 -367C 280 -364 282 -360 281 -355C 281 -350 279 -336 275 -313C 240 -125 212 13 189 102C 173 165 151 197 124 197C 109 197 91 190 70 177C 63 172 54 174 44 183C 30 197 23 212 23 228C 23 244 46 261 67 261C 96 261 134 240 181 197C 237 147 278 59 303 -66L 360 -349" id="f001-glyph-17-3731"/><path d="M 479 -114C 446 -82 422 -66 409 -66C 401 -66 401 -72 406 -97C 417 -148 432 -213 453 -297C 477 -386 465 -428 454 -439C 448 -445 439 -448 428 -448C 410 -448 385 -439 354 -422C 327 -406 295 -382 258 -350C 223 -321 192 -286 161 -247L 159 -247L 183 -345C 200 -414 196 -448 173 -448C 142 -448 82 -410 23 -351L 38 -325C 71 -356 93 -371 105 -371C 113 -371 114 -359 109 -336L 25 4L 31 12C 47 5 72 -2 107 -9C 118 -61 130 -113 145 -168C 173 -213 211 -260 260 -308C 309 -357 345 -381 370 -381C 387 -381 391 -374 378 -305L 329 -95C 311 -24 316 12 345 12C 376 12 435 -26 495 -86L 479 -114" id="f001-glyph-18-3735"/><path d="M 452 -333C 452 -402 423 -448 375 -448C 348 -448 313 -435 270 -408C 225 -381 182 -342 140 -292L 138 -292L 229 -683C 233 -702 232 -712 225 -712C 226 -711 130 -686 66 -677L 64 -652L 97 -652C 117 -652 128 -650 131 -645C 134 -638 134 -622 129 -598L 38 -167C 25 -105 27 -60 44 -33C 60 -8 97 12 132 12C 182 12 235 -6 290 -41C 337 -72 375 -114 406 -169C 437 -224 452 -278 452 -333M 365 -316C 365 -257 353 -203 328 -154C 304 -103 274 -68 239 -49C 222 -40 203 -35 183 -35C 130 -35 100 -79 112 -163C 115 -182 120 -206 129 -233C 158 -272 193 -308 236 -343C 277 -376 308 -392 330 -392C 353 -392 365 -367 365 -316" id="f001-glyph-19-3724"/><path d="M 479 -114C 446 -82 422 -66 409 -66C 401 -66 401 -72 406 -97C 417 -148 432 -213 453 -297C 477 -386 465 -428 454 -439C 448 -445 439 -448 428 -448C 410 -448 385 -439 354 -422C 327 -406 295 -382 258 -350C 223 -321 192 -286 161 -247L 159 -247L 183 -345C 200 -414 196 -448 173 -448C 142 -448 82 -410 23 -351L 38 -325C 71 -356 93 -371 105 -371C 113 -371 114 -359 109 -336L 25 4L 31 12C 47 5 72 -2 107 -9C 118 -61 130 -113 145 -168C 173 -213 211 -260 260 -308C 309 -357 345 -381 370 -381C 387 -381 391 -374 378 -305L 329 -95C 311 -24 316 12 345 12C 376 12 435 -26 495 -86L 479 -114" id="f001-glyph-20-3735"/><path d="M 479 -114C 446 -82 422 -66 409 -66C 401 -66 401 -72 406 -97C 417 -148 432 -213 453 -297C 477 -386 465 -428 454 -439C 448 -445 439 -448 428 -448C 410 -448 385 -439 354 -422C 327 -406 295 -382 258 -350C 223 -321 192 -286 161 -247L 159 -247L 183 -345C 200 -414 196 -448 173 -448C 142 -448 82 -410 23 -351L 38 -325C 71 -356 93 -371 105 -371C 113 -371 114 -359 109 -336L 25 4L 31 12C 47 5 72 -2 107 -9C 118 -61 130 -113 145 -168C 173 -213 211 -260 260 -308C 309 -357 345 -381 370 -381C 387 -381 391 -374 378 -305L 329 -95C 311 -24 316 12 345 12C 376 12 435 -26 495 -86L 479 -114" id="f001-glyph-21-3735"/><path d="M 394 -607C 394 -635 377 -655 350 -655C 319 -655 294 -625 294 -594C 294 -566 314 -546 339 -546C 371 -546 394 -574 394 -607M 360 -349C 373 -415 370 -448 351 -448C 336 -448 312 -438 279 -417C 246 -396 214 -369 183 -338L 197 -313C 238 -349 264 -367 276 -367C 280 -364 282 -360 281 -355C 281 -350 279 -336 275 -313C 240 -125 212 13 189 102C 173 165 151 197 124 197C 109 197 91 190 70 177C 63 172 54 174 44 183C 30 197 23 212 23 228C 23 244 46 261 67 261C 96 261 134 240 181 197C 237 147 278 59 303 -66L 360 -349" id="f001-glyph-22-3731"/><path d="M 471 -123C 430 -84 404 -65 392 -65C 385 -65 385 -79 390 -106C 417 -250 438 -356 457 -429L 455 -433C 446 -433 433 -435 416 -439C 387 -445 363 -448 344 -448C 285 -448 209 -419 152 -376C 72 -315 23 -208 23 -103C 23 -31 50 12 85 12C 113 12 146 -3 185 -34C 246 -81 294 -131 329 -183L 331 -183L 309 -81C 296 -19 301 12 326 12C 340 12 363 2 394 -17C 425 -37 455 -64 483 -97L 471 -123M 374 -387C 365 -331 356 -290 345 -261C 330 -226 297 -182 246 -129C 195 -76 160 -50 139 -50C 122 -50 110 -75 110 -118C 110 -171 120 -222 140 -270C 160 -319 186 -355 218 -379C 239 -394 267 -402 301 -402C 328 -402 353 -397 374 -387" id="f001-glyph-23-3723"/><path d="M 384 -27C 339 -30 311 -36 301 -45C 292 -54 287 -77 287 -114L 287 -635C 227 -610 168 -593 109 -583L 109 -559L 157 -557C 178 -556 192 -553 197 -546C 202 -539 205 -523 205 -499L 205 -114C 205 -77 200 -54 190 -45C 181 -36 154 -30 109 -27L 109 0L 384 0L 384 -27" id="f001-glyph-24-21"/><path d="M 479 -114C 446 -82 422 -66 409 -66C 401 -66 401 -72 406 -97C 417 -148 432 -213 453 -297C 477 -386 465 -428 454 -439C 448 -445 439 -448 428 -448C 410 -448 385 -439 354 -422C 327 -406 295 -382 258 -350C 223 -321 192 -286 161 -247L 159 -247L 183 -345C 200 -414 196 -448 173 -448C 142 -448 82 -410 23 -351L 38 -325C 71 -356 93 -371 105 -371C 113 -371 114 -359 109 -336L 25 4L 31 12C 47 5 72 -2 107 -9C 118 -61 130 -113 145 -168C 173 -213 211 -260 260 -308C 309 -357 345 -381 370 -381C 387 -381 391 -374 378 -305L 329 -95C 311 -24 316 12 345 12C 376 12 435 -26 495 -86L 479 -114" id="f001-glyph-24-3735"/><path d="M 452 -333C 452 -402 423 -448 375 -448C 348 -448 313 -435 270 -408C 225 -381 182 -342 140 -292L 138 -292L 229 -683C 233 -702 232 -712 225 -712C 226 -711 130 -686 66 -677L 64 -652L 97 -652C 117 -652 128 -650 131 -645C 134 -638 134 -622 129 -598L 38 -167C 25 -105 27 -60 44 -33C 60 -8 97 12 132 12C 182 12 235 -6 290 -41C 337 -72 375 -114 406 -169C 437 -224 452 -278 452 -333M 365 -316C 365 -257 353 -203 328 -154C 304 -103 274 -68 239 -49C 222 -40 203 -35 183 -35C 130 -35 100 -79 112 -163C 115 -182 120 -206 129 -233C 158 -272 193 -308 236 -343C 277 -376 308 -392 330 -392C 353 -392 365 -367 365 -316" id="f001-glyph-25-3724"/><path d="M 384 -27C 339 -30 311 -36 301 -45C 292 -54 287 -77 287 -114L 287 -635C 227 -610 168 -593 109 -583L 109 -559L 157 -557C 178 -556 192 -553 197 -546C 202 -539 205 -523 205 -499L 205 -114C 205 -77 200 -54 190 -45C 181 -36 154 -30 109 -27L 109 0L 384 0L 384 -27" id="f001-glyph-26-21"/><path d="M 452 -333C 452 -402 423 -448 375 -448C 348 -448 313 -435 270 -408C 225 -381 182 -342 140 -292L 138 -292L 229 -683C 233 -702 232 -712 225 -712C 226 -711 130 -686 66 -677L 64 -652L 97 -652C 117 -652 128 -650 131 -645C 134 -638 134 -622 129 -598L 38 -167C 25 -105 27 -60 44 -33C 60 -8 97 12 132 12C 182 12 235 -6 290 -41C 337 -72 375 -114 406 -169C 437 -224 452 -278 452 -333M 365 -316C 365 -257 353 -203 328 -154C 304 -103 274 -68 239 -49C 222 -40 203 -35 183 -35C 130 -35 100 -79 112 -163C 115 -182 120 -206 129 -233C 158 -272 193 -308 236 -343C 277 -376 308 -392 330 -392C 353 -392 365 -367 365 -316" id="f001-glyph-27-3724"/><path d="M 412 -140C 397 -109 384 -90 373 -83C 362 -76 343 -73 315 -73L 129 -73L 270 -222C 319 -275 353 -319 372 -352C 392 -387 402 -425 402 -466C 402 -516 385 -557 352 -588C 319 -619 279 -635 234 -635C 181 -635 136 -615 99 -576L 42 -495L 64 -475C 105 -537 150 -568 201 -568C 274 -568 318 -519 318 -435C 318 -362 278 -293 193 -193C 160 -154 108 -98 32 -23L 32 0L 405 0L 440 -131L 412 -140" id="f001-glyph-28-22"/><path d="M 752 -113C 717 -80 694 -64 681 -64C 674 -64 673 -77 679 -103L 724 -292C 749 -396 741 -448 701 -448C 684 -448 664 -442 639 -429C 579 -400 505 -336 441 -252L 439 -252L 447 -289C 470 -395 460 -448 419 -448C 400 -448 379 -441 355 -427C 286 -388 222 -329 162 -249L 160 -249L 180 -324C 203 -407 199 -448 170 -448C 140 -448 80 -406 23 -349L 35 -321C 47 -333 61 -345 76 -356C 92 -368 103 -374 108 -374C 115 -374 116 -363 111 -341C 91 -246 62 -130 24 6L 32 12C 59 2 84 -4 108 -6C 119 -70 132 -124 149 -171C 167 -207 201 -251 250 -302C 301 -356 339 -383 364 -383C 387 -383 389 -355 373 -282C 353 -186 330 -91 303 6L 309 12C 337 3 363 -3 386 -6C 393 -46 405 -100 424 -171C 443 -206 478 -251 529 -304C 580 -357 617 -383 642 -383C 659 -383 662 -360 652 -315L 603 -91C 588 -22 594 12 619 12C 632 12 653 3 682 -15C 713 -34 739 -59 766 -88L 752 -113" id="f001-glyph-29-3734"/><path d="M 412 -140C 397 -109 384 -90 373 -83C 362 -76 343 -73 315 -73L 129 -73L 270 -222C 319 -275 353 -319 372 -352C 392 -387 402 -425 402 -466C 402 -516 385 -557 352 -588C 319 -619 279 -635 234 -635C 181 -635 136 -615 99 -576L 42 -495L 64 -475C 105 -537 150 -568 201 -568C 274 -568 318 -519 318 -435C 318 -362 278 -293 193 -193C 160 -154 108 -98 32 -23L 32 0L 405 0L 440 -131L 412 -140" id="f001-glyph-30-22"/><path d="M 384 -27C 339 -30 311 -36 301 -45C 292 -54 287 -77 287 -114L 287 -635C 227 -610 168 -593 109 -583L 109 -559L 157 -557C 178 -556 192 -553 197 -546C 202 -539 205 -523 205 -499L 205 -114C 205 -77 200 -54 190 -45C 181 -36 154 -30 109 -27L 109 0L 384 0L 384 -27" id="f001-glyph-31-21"/><path d="M 412 -140C 397 -109 384 -90 373 -83C 362 -76 343 -73 315 -73L 129 -73L 270 -222C 319 -275 353 -319 372 -352C 392 -387 402 -425 402 -466C 402 -516 385 -557 352 -588C 319 -619 279 -635 234 -635C 181 -635 136 -615 99 -576L 42 -495L 64 -475C 105 -537 150 -568 201 -568C 274 -568 318 -519 318 -435C 318 -362 278 -293 193 -193C 160 -154 108 -98 32 -23L 32 0L 405 0L 440 -131L 412 -140" id="f001-glyph-32-22"/><path d="M 384 -27C 339 -30 311 -36 301 -45C 292 -54 287 -77 287 -114L 287 -635C 227 -610 168 -593 109 -583L 109 -559L 157 -557C 178 -556 192 -553 197 -546C 202 -539 205 -523 205 -499L 205 -114C 205 -77 200 -54 190 -45C 181 -36 154 -30 109 -27L 109 0L 384 0L 384 -27" id="f001-glyph-33-21"/><path d="M 412 -140C 397 -109 384 -90 373 -83C 362 -76 343 -73 315 -73L 129 -73L 270 -222C 319 -275 353 -319 372 -352C 392 -387 402 -425 402 -466C 402 -516 385 -557 352 -588C 319 -619 279 -635 234 -635C 181 -635 136 -615 99 -576L 42 -495L 64 -475C 105 -537 150 -568 201 -568C 274 -568 318 -519 318 -435C 318 -362 278 -293 193 -193C 160 -154 108 -98 32 -23L 32 0L 405 0L 440 -131L 412 -140" id="f001-glyph-34-22"/><path d="M 384 -27C 339 -30 311 -36 301 -45C 292 -54 287 -77 287 -114L 287 -635C 227 -610 168 -593 109 -583L 109 -559L 157 -557C 178 -556 192 -553 197 -546C 202 -539 205 -523 205 -499L 205 -114C 205 -77 200 -54 190 -45C 181 -36 154 -30 109 -27L 109 0L 384 0L 384 -27" id="f001-glyph-35-21"/><path d="M 219 -86C 216 -168 211 -250 206 -337C 201 -410 189 -448 163 -448C 131 -448 79 -396 43 -344L 60 -322C 91 -359 110 -375 118 -375C 126 -375 132 -358 136 -298C 141 -238 152 -81 155 12L 182 12C 242 -62 331 -177 390 -258C 435 -321 451 -360 451 -391C 450 -424 432 -448 408 -448C 390 -448 372 -435 366 -419C 362 -410 362 -401 366 -394C 373 -383 376 -367 376 -350C 376 -283 262 -138 221 -86L 219 -86" id="f001-glyph-36-3692"/><path d="M 479 -114C 446 -82 422 -66 409 -66C 401 -66 401 -72 406 -97C 417 -148 432 -213 453 -297C 477 -386 465 -428 454 -439C 448 -445 439 -448 428 -448C 410 -448 385 -439 354 -422C 327 -406 295 -382 258 -350C 223 -321 192 -286 161 -247L 159 -247L 183 -345C 200 -414 196 -448 173 -448C 142 -448 82 -410 23 -351L 38 -325C 71 -356 93 -371 105 -371C 113 -371 114 -359 109 -336L 25 4L 31 12C 47 5 72 -2 107 -9C 118 -61 130 -113 145 -168C 173 -213 211 -260 260 -308C 309 -357 345 -381 370 -381C 387 -381 391 -374 378 -305L 329 -95C 311 -24 316 12 345 12C 376 12 435 -26 495 -86L 479 -114" id="f001-glyph-37-3735"/><path d="M 384 -27C 339 -30 311 -36 301 -45C 292 -54 287 -77 287 -114L 287 -635C 227 -610 168 -593 109 -583L 109 -559L 157 -557C 178 -556 192 -553 197 -546C 202 -539 205 -523 205 -499L 205 -114C 205 -77 200 -54 190 -45C 181 -36 154 -30 109 -27L 109 0L 384 0L 384 -27" id="f001-glyph-38-21"/><path d="M 219 -86C 216 -168 211 -250 206 -337C 201 -410 189 -448 163 -448C 131 -448 79 -396 43 -344L 60 -322C 91 -359 110 -375 118 -375C 126 -375 132 -358 136 -298C 141 -238 152 -81 155 12L 182 12C 242 -62 331 -177 390 -258C 435 -321 451 -360 451 -391C 450 -424 432 -448 408 -448C 390 -448 372 -435 366 -419C 362 -410 362 -401 366 -394C 373 -383 376 -367 376 -350C 376 -283 262 -138 221 -86L 219 -86" id="f001-glyph-39-3692"/><path d="M 479 -114C 446 -82 422 -66 409 -66C 401 -66 401 -72 406 -97C 417 -148 432 -213 453 -297C 477 -386 465 -428 454 -439C 448 -445 439 -448 428 -448C 410 -448 385 -439 354 -422C 327 -406 295 -382 258 -350C 223 -321 192 -286 161 -247L 159 -247L 183 -345C 200 -414 196 -448 173 -448C 142 -448 82 -410 23 -351L 38 -325C 71 -356 93 -371 105 -371C 113 -371 114 -359 109 -336L 25 4L 31 12C 47 5 72 -2 107 -9C 118 -61 130 -113 145 -168C 173 -213 211 -260 260 -308C 309 -357 345 -381 370 -381C 387 -381 391 -374 378 -305L 329 -95C 311 -24 316 12 345 12C 376 12 435 -26 495 -86L 479 -114" id="f001-glyph-40-3735"/><path d="M 412 -140C 397 -109 384 -90 373 -83C 362 -76 343 -73 315 -73L 129 -73L 270 -222C 319 -275 353 -319 372 -352C 392 -387 402 -425 402 -466C 402 -516 385 -557 352 -588C 319 -619 279 -635 234 -635C 181 -635 136 -615 99 -576L 42 -495L 64 -475C 105 -537 150 -568 201 -568C 274 -568 318 -519 318 -435C 318 -362 278 -293 193 -193C 160 -154 108 -98 32 -23L 32 0L 405 0L 440 -131L 412 -140" id="f001-glyph-41-22"/><path d="M 219 -86C 216 -168 211 -250 206 -337C 201 -410 189 -448 163 -448C 131 -448 79 -396 43 -344L 60 -322C 91 -359 110 -375 118 -375C 126 -375 132 -358 136 -298C 141 -238 152 -81 155 12L 182 12C 242 -62 331 -177 390 -258C 435 -321 451 -360 451 -391C 450 -424 432 -448 408 -448C 390 -448 372 -435 366 -419C 362 -410 362 -401 366 -394C 373 -383 376 -367 376 -350C 376 -283 262 -138 221 -86L 219 -86" id="f001-glyph-42-3692"/><path d="M 479 -114C 446 -82 422 -66 409 -66C 401 -66 401 -72 406 -97C 417 -148 432 -213 453 -297C 477 -386 465 -428 454 -439C 448 -445 439 -448 428 -448C 410 -448 385 -439 354 -422C 327 -406 295 -382 258 -350C 223 -321 192 -286 161 -247L 159 -247L 183 -345C 200 -414 196 -448 173 -448C 142 -448 82 -410 23 -351L 38 -325C 71 -356 93 -371 105 -371C 113 -371 114 -359 109 -336L 25 4L 31 12C 47 5 72 -2 107 -9C 118 -61 130 -113 145 -168C 173 -213 211 -260 260 -308C 309 -357 345 -381 370 -381C 387 -381 391 -374 378 -305L 329 -95C 311 -24 316 12 345 12C 376 12 435 -26 495 -86L 479 -114" id="f001-glyph-43-3735"/><path d="M 752 -113C 717 -80 694 -64 681 -64C 674 -64 673 -77 679 -103L 724 -292C 749 -396 741 -448 701 -448C 684 -448 664 -442 639 -429C 579 -400 505 -336 441 -252L 439 -252L 447 -289C 470 -395 460 -448 419 -448C 400 -448 379 -441 355 -427C 286 -388 222 -329 162 -249L 160 -249L 180 -324C 203 -407 199 -448 170 -448C 140 -448 80 -406 23 -349L 35 -321C 47 -333 61 -345 76 -356C 92 -368 103 -374 108 -374C 115 -374 116 -363 111 -341C 91 -246 62 -130 24 6L 32 12C 59 2 84 -4 108 -6C 119 -70 132 -124 149 -171C 167 -207 201 -251 250 -302C 301 -356 339 -383 364 -383C 387 -383 389 -355 373 -282C 353 -186 330 -91 303 6L 309 12C 337 3 363 -3 386 -6C 393 -46 405 -100 424 -171C 443 -206 478 -251 529 -304C 580 -357 617 -383 642 -383C 659 -383 662 -360 652 -315L 603 -91C 588 -22 594 12 619 12C 632 12 653 3 682 -15C 713 -34 739 -59 766 -88L 752 -113" id="f001-glyph-44-3734"/><path d="M 219 -86C 216 -168 211 -250 206 -337C 201 -410 189 -448 163 -448C 131 -448 79 -396 43 -344L 60 -322C 91 -359 110 -375 118 -375C 126 -375 132 -358 136 -298C 141 -238 152 -81 155 12L 182 12C 242 -62 331 -177 390 -258C 435 -321 451 -360 451 -391C 450 -424 432 -448 408 -448C 390 -448 372 -435 366 -419C 362 -410 362 -401 366 -394C 373 -383 376 -367 376 -350C 376 -283 262 -138 221 -86L 219 -86" id="f001-glyph-45-3692"/><path d="M 384 -27C 339 -30 311 -36 301 -45C 292 -54 287 -77 287 -114L 287 -635C 227 -610 168 -593 109 -583L 109 -559L 157 -557C 178 -556 192 -553 197 -546C 202 -539 205 -523 205 -499L 205 -114C 205 -77 200 -54 190 -45C 181 -36 154 -30 109 -27L 109 0L 384 0L 384 -27" id="f001-glyph-46-21"/><path d="M 219 -86C 216 -168 211 -250 206 -337C 201 -410 189 -448 163 -448C 131 -448 79 -396 43 -344L 60 -322C 91 -359 110 -375 118 -375C 126 -375 132 -358 136 -298C 141 -238 152 -81 155 12L 182 12C 242 -62 331 -177 390 -258C 435 -321 451 -360 451 -391C 450 -424 432 -448 408 -448C 390 -448 372 -435 366 -419C 362 -410 362 -401 366 -394C 373 -383 376 -367 376 -350C 376 -283 262 -138 221 -86L 219 -86" id="f001-glyph-47-3692"/><path d="M 384 -27C 339 -30 311 -36 301 -45C 292 -54 287 -77 287 -114L 287 -635C 227 -610 168 -593 109 -583L 109 -559L 157 -557C 178 -556 192 -553 197 -546C 202 -539 205 -523 205 -499L 205 -114C 205 -77 200 -54 190 -45C 181 -36 154 -30 109 -27L 109 0L 384 0L 384 -27" id="f001-glyph-48-21"/><path d="M 412 -140C 397 -109 384 -90 373 -83C 362 -76 343 -73 315 -73L 129 -73L 270 -222C 319 -275 353 -319 372 -352C 392 -387 402 -425 402 -466C 402 -516 385 -557 352 -588C 319 -619 279 -635 234 -635C 181 -635 136 -615 99 -576L 42 -495L 64 -475C 105 -537 150 -568 201 -568C 274 -568 318 -519 318 -435C 318 -362 278 -293 193 -193C 160 -154 108 -98 32 -23L 32 0L 405 0L 440 -131L 412 -140" id="f001-glyph-48-22"/><path d="M 219 -86C 216 -168 211 -250 206 -337C 201 -410 189 -448 163 -448C 131 -448 79 -396 43 -344L 60 -322C 91 -359 110 -375 118 -375C 126 -375 132 -358 136 -298C 141 -238 152 -81 155 12L 182 12C 242 -62 331 -177 390 -258C 435 -321 451 -360 451 -391C 450 -424 432 -448 408 -448C 390 -448 372 -435 366 -419C 362 -410 362 -401 366 -394C 373 -383 376 -367 376 -350C 376 -283 262 -138 221 -86L 219 -86" id="f001-glyph-49-3692"/><path d="M 384 -27C 339 -30 311 -36 301 -45C 292 -54 287 -77 287 -114L 287 -635C 227 -610 168 -593 109 -583L 109 -559L 157 -557C 178 -556 192 -553 197 -546C 202 -539 205 -523 205 -499L 205 -114C 205 -77 200 -54 190 -45C 181 -36 154 -30 109 -27L 109 0L 384 0L 384 -27" id="f001-glyph-50-21"/><path d="M 752 -113C 717 -80 694 -64 681 -64C 674 -64 673 -77 679 -103L 724 -292C 749 -396 741 -448 701 -448C 684 -448 664 -442 639 -429C 579 -400 505 -336 441 -252L 439 -252L 447 -289C 470 -395 460 -448 419 -448C 400 -448 379 -441 355 -427C 286 -388 222 -329 162 -249L 160 -249L 180 -324C 203 -407 199 -448 170 -448C 140 -448 80 -406 23 -349L 35 -321C 47 -333 61 -345 76 -356C 92 -368 103 -374 108 -374C 115 -374 116 -363 111 -341C 91 -246 62 -130 24 6L 32 12C 59 2 84 -4 108 -6C 119 -70 132 -124 149 -171C 167 -207 201 -251 250 -302C 301 -356 339 -383 364 -383C 387 -383 389 -355 373 -282C 353 -186 330 -91 303 6L 309 12C 337 3 363 -3 386 -6C 393 -46 405 -100 424 -171C 443 -206 478 -251 529 -304C 580 -357 617 -383 642 -383C 659 -383 662 -360 652 -315L 603 -91C 588 -22 594 12 619 12C 632 12 653 3 682 -15C 713 -34 739 -59 766 -88L 752 -113" id="f001-glyph-50-3734"/><path d="M 219 -86C 216 -168 211 -250 206 -337C 201 -410 189 -448 163 -448C 131 -448 79 -396 43 -344L 60 -322C 91 -359 110 -375 118 -375C 126 -375 132 -358 136 -298C 141 -238 152 -81 155 12L 182 12C 242 -62 331 -177 390 -258C 435 -321 451 -360 451 -391C 450 -424 432 -448 408 -448C 390 -448 372 -435 366 -419C 362 -410 362 -401 366 -394C 373 -383 376 -367 376 -350C 376 -283 262 -138 221 -86L 219 -86" id="f001-glyph-51-3692"/><path d="M 412 -140C 397 -109 384 -90 373 -83C 362 -76 343 -73 315 -73L 129 -73L 270 -222C 319 -275 353 -319 372 -352C 392 -387 402 -425 402 -466C 402 -516 385 -557 352 -588C 319 -619 279 -635 234 -635C 181 -635 136 -615 99 -576L 42 -495L 64 -475C 105 -537 150 -568 201 -568C 274 -568 318 -519 318 -435C 318 -362 278 -293 193 -193C 160 -154 108 -98 32 -23L 32 0L 405 0L 440 -131L 412 -140" id="f001-glyph-52-22"/><path d="M 384 -27C 339 -30 311 -36 301 -45C 292 -54 287 -77 287 -114L 287 -635C 227 -610 168 -593 109 -583L 109 -559L 157 -557C 178 -556 192 -553 197 -546C 202 -539 205 -523 205 -499L 205 -114C 205 -77 200 -54 190 -45C 181 -36 154 -30 109 -27L 109 0L 384 0L 384 -27" id="f001-glyph-52-21"/><path d="M 219 -86C 216 -168 211 -250 206 -337C 201 -410 189 -448 163 -448C 131 -448 79 -396 43 -344L 60 -322C 91 -359 110 -375 118 -375C 126 -375 132 -358 136 -298C 141 -238 152 -81 155 12L 182 12C 242 -62 331 -177 390 -258C 435 -321 451 -360 451 -391C 450 -424 432 -448 408 -448C 390 -448 372 -435 366 -419C 362 -410 362 -401 366 -394C 373 -383 376 -367 376 -350C 376 -283 262 -138 221 -86L 219 -86" id="f001-glyph-53-3692"/><path d="M 412 -140C 397 -109 384 -90 373 -83C 362 -76 343 -73 315 -73L 129 -73L 270 -222C 319 -275 353 -319 372 -352C 392 -387 402 -425 402 -466C 402 -516 385 -557 352 -588C 319 -619 279 -635 234 -635C 181 -635 136 -615 99 -576L 42 -495L 64 -475C 105 -537 150 -568 201 -568C 274 -568 318 -519 318 -435C 318 -362 278 -293 193 -193C 160 -154 108 -98 32 -23L 32 0L 405 0L 440 -131L 412 -140" id="f001-glyph-54-22"/><path d="M 219 -86C 216 -168 211 -250 206 -337C 201 -410 189 -448 163 -448C 131 -448 79 -396 43 -344L 60 -322C 91 -359 110 -375 118 -375C 126 -375 132 -358 136 -298C 141 -238 152 -81 155 12L 182 12C 242 -62 331 -177 390 -258C 435 -321 451 -360 451 -391C 450 -424 432 -448 408 -448C 390 -448 372 -435 366 -419C 362 -410 362 -401 366 -394C 373 -383 376 -367 376 -350C 376 -283 262 -138 221 -86L 219 -86" id="f001-glyph-55-3692"/><path d="M 412 -140C 397 -109 384 -90 373 -83C 362 -76 343 -73 315 -73L 129 -73L 270 -222C 319 -275 353 -319 372 -352C 392 -387 402 -425 402 -466C 402 -516 385 -557 352 -588C 319 -619 279 -635 234 -635C 181 -635 136 -615 99 -576L 42 -495L 64 -475C 105 -537 150 -568 201 -568C 274 -568 318 -519 318 -435C 318 -362 278 -293 193 -193C 160 -154 108 -98 32 -23L 32 0L 405 0L 440 -131L 412 -140" id="f001-glyph-56-22"/><path d="M 752 -113C 717 -80 694 -64 681 -64C 674 -64 673 -77 679 -103L 724 -292C 749 -396 741 -448 701 -448C 684 -448 664 -442 639 -429C 579 -400 505 -336 441 -252L 439 -252L 447 -289C 470 -395 460 -448 419 -448C 400 -448 379 -441 355 -427C 286 -388 222 -329 162 -249L 160 -249L 180 -324C 203 -407 199 -448 170 -448C 140 -448 80 -406 23 -349L 35 -321C 47 -333 61 -345 76 -356C 92 -368 103 -374 108 -374C 115 -374 116 -363 111 -341C 91 -246 62 -130 24 6L 32 12C 59 2 84 -4 108 -6C 119 -70 132 -124 149 -171C 167 -207 201 -251 250 -302C 301 -356 339 -383 364 -383C 387 -383 389 -355 373 -282C 353 -186 330 -91 303 6L 309 12C 337 3 363 -3 386 -6C 393 -46 405 -100 424 -171C 443 -206 478 -251 529 -304C 580 -357 617 -383 642 -383C 659 -383 662 -360 652 -315L 603 -91C 588 -22 594 12 619 12C 632 12 653 3 682 -15C 713 -34 739 -59 766 -88L 752 -113" id="f001-glyph-56-3734"/><path d="M 303 0L 303 -28C 221 -34 213 -39 213 -125L 213 -525C 213 -610 221 -616 303 -622L 303 -650L 38 -650L 38 -622C 120 -616 128 -610 128 -525L 128 -125C 128 -40 120 -34 38 -28L 38 0L 303 0" id="f001-glyph-57-42"/><path d="M 523 0L 523 -26C 465 -32 460 -36 460 -104L 460 -297C 460 -394 410 -449 331 -449C 302 -449 276 -437 248 -419C 223 -402 201 -387 181 -372L 181 -452C 137 -432 90 -420 42 -411L 42 -388C 96 -378 102 -375 102 -311L 102 -104C 102 -38 97 -33 29 -26L 29 0L 246 0L 246 -26C 187 -32 181 -36 181 -104L 181 -339C 211 -365 250 -390 290 -390C 357 -390 381 -345 381 -276L 381 -109C 381 -40 374 -32 315 -26L 315 0L 523 0" id="f001-glyph-57-79"/><path d="M 169 -380L 169 -459C 122 -440 66 -423 24 -416L 24 -392C 86 -384 90 -382 90 -317L 90 135C 90 201 81 207 17 213L 17 240L 254 240L 254 213C 176 206 169 201 169 125L 169 -6C 182 1 209 11 238 12C 368 -12 487 -109 487 -260C 487 -359 421 -449 310 -449C 298 -449 279 -444 261 -434L 169 -380M 169 -347C 196 -367 237 -389 269 -389C 342 -389 403 -329 403 -222C 403 -109 347 -37 263 -37C 229 -37 191 -53 169 -76L 169 -347" id="f001-glyph-57-81"/><path d="M 518 -49L 490 -51C 452 -53 444 -60 444 -110L 444 -444C 391 -433 339 -429 287 -426L 287 -403C 359 -393 365 -389 365 -332L 365 -99C 331 -66 293 -51 257 -51C 212 -51 169 -75 169 -164L 169 -298C 169 -366 169 -413 172 -444C 124 -435 76 -429 29 -426L 29 -403C 86 -392 90 -388 90 -333L 90 -137C 90 -29 147 12 214 12C 241 12 262 4 291 -13C 319 -30 342 -48 365 -65L 365 6L 371 12C 421 -3 472 -17 518 -24L 518 -49" id="f001-glyph-57-86"/><path d="M 298 -36L 289 -62C 275 -55 252 -45 227 -45C 202 -45 169 -60 169 -141L 169 -398L 276 -398C 288 -405 291 -427 282 -437L 169 -437L 169 -574L 155 -576L 90 -510L 90 -437L 44 -437L 17 -408L 21 -398L 90 -398L 90 -107C 90 -28 125 12 188 12C 197 12 213 8 230 -1L 298 -36" id="f001-glyph-57-85"/><path d="M 238 0L 238 -26C 174 -32 166 -38 166 -104L 166 -712C 132 -700 70 -683 18 -677L 18 -653C 81 -648 87 -645 87 -577L 87 -104C 87 -38 78 -32 15 -26L 15 0L 238 0" id="f001-glyph-57-77"/><path d="M 433 -39L 423 -65C 413 -59 399 -54 387 -54C 370 -54 352 -69 352 -114L 352 -300C 352 -352 342 -393 307 -422C 285 -440 255 -449 225 -449C 168 -438 103 -399 75 -379C 56 -365 43 -354 43 -339C 43 -316 69 -296 87 -296C 101 -296 112 -303 116 -319C 124 -350 133 -372 146 -385C 156 -397 171 -405 191 -405C 241 -405 275 -364 275 -292L 275 -274C 253 -256 180 -229 120 -209C 65 -190 39 -159 39 -110C 39 -47 88 12 159 12C 189 12 237 -25 277 -52C 282 -35 288 -21 301 -7C 312 3 333 12 348 12L 433 -39M 275 -84C 256 -66 221 -49 195 -48C 164 -48 124 -73 124 -125C 124 -161 146 -180 185 -198C 206 -208 254 -229 275 -240L 275 -84" id="f001-glyph-57-66"/><path d="M 478 -437L 297 -437L 297 -412C 354 -404 361 -393 349 -355C 328 -292 285 -174 257 -106L 166 -357C 153 -394 158 -404 204 -412L 204 -437L 1 -437L 1 -412C 56 -404 66 -391 87 -336C 117 -265 162 -144 202 -30C 208 -13 208 0 203 15C 199 28 191 49 172 84C 149 128 129 153 98 173C 81 184 72 193 72 209C 72 233 101 257 129 257C 143 257 156 252 161 233C 175 179 197 122 264 -38C 333 -203 364 -286 389 -339C 416 -396 425 -404 478 -412L 478 -437" id="f001-glyph-57-90"/><path d="M 379 -106C 343 -72 305 -56 265 -56C 195 -56 117 -112 116 -248C 235 -252 360 -262 377 -265C 395 -269 400 -277 400 -297C 400 -375 333 -449 250 -449C 198 -449 144 -422 103 -376C 62 -331 37 -270 37 -201C 37 -88 109 12 232 12C 263 12 332 -6 395 -85L 379 -106M 226 -412C 281 -412 315 -364 314 -312C 314 -298 308 -292 290 -292C 232 -290 177 -289 121 -289C 136 -370 180 -412 226 -412" id="f001-glyph-57-70"/><path d="M 181 -343L 181 -452C 133 -431 89 -419 40 -411L 40 -389C 97 -381 102 -377 102 -311L 102 -104C 102 -38 95 -32 33 -26L 33 0L 263 0L 263 -26C 186 -32 181 -38 181 -104L 181 -287C 203 -343 235 -373 261 -373C 277 -373 289 -367 303 -352C 309 -346 318 -345 330 -350C 349 -359 362 -379 362 -399C 362 -423 338 -449 304 -449C 256 -449 213 -393 183 -343L 181 -343" id="f001-glyph-57-83"/><path d="M 409 -504C 401 -567 396 -606 392 -642C 354 -654 312 -665 266 -665C 137 -665 60 -583 60 -487C 60 -374 161 -324 225 -290C 300 -250 355 -215 355 -141C 355 -68 310 -21 235 -21C 132 -21 87 -122 71 -183L 42 -176C 48 -128 61 -42 69 -21C 78 -16 93 -9 118 0C 143 7 175 15 216 15C 349 15 438 -69 438 -174C 438 -286 343 -333 265 -373C 186 -414 138 -448 138 -521C 138 -575 172 -631 249 -631C 336 -631 362 -562 380 -498L 409 -504" id="f001-glyph-58-52"/><path d="M 135 -536C 164 -536 186 -560 186 -587C 186 -617 164 -639 136 -639C 109 -639 85 -617 85 -587C 85 -560 109 -536 135 -536M 252 0L 252 -26C 188 -32 181 -38 181 -106L 181 -451C 137 -433 90 -420 39 -412L 39 -388C 99 -378 102 -374 102 -312L 102 -106C 102 -38 95 -32 32 -26L 32 0L 252 0" id="f001-glyph-58-74"/><path d="M 523 0L 523 -26C 465 -32 460 -36 460 -104L 460 -297C 460 -394 410 -449 331 -449C 302 -449 276 -437 248 -419C 223 -402 201 -387 181 -372L 181 -452C 137 -432 90 -420 42 -411L 42 -388C 96 -378 102 -375 102 -311L 102 -104C 102 -38 97 -33 29 -26L 29 0L 246 0L 246 -26C 187 -32 181 -36 181 -104L 181 -339C 211 -365 250 -390 290 -390C 357 -390 381 -345 381 -276L 381 -109C 381 -40 374 -32 315 -26L 315 0L 523 0" id="f001-glyph-58-79"/><path d="M 462 -438C 426 -432 375 -426 326 -424C 297 -440 264 -449 230 -449C 153 -449 51 -397 51 -283C 51 -215 94 -168 139 -149C 123 -129 91 -103 51 -88C 50 -78 53 -61 62 -46C 75 -25 100 -2 136 9C 112 27 73 59 53 79C 38 94 29 113 29 135C 30 192 91 257 202 257C 335 257 452 160 452 59C 452 -39 370 -59 308 -59C 275 -59 239 -58 203 -58C 158 -58 140 -77 140 -97C 140 -111 156 -129 170 -138C 186 -136 204 -133 221 -133C 306 -133 396 -185 396 -293C 396 -329 385 -360 366 -382L 423 -379C 439 -388 459 -414 468 -430L 462 -438M 220 -419C 277 -419 314 -363 314 -284C 314 -205 275 -166 231 -165C 175 -165 137 -221 137 -299C 137 -377 176 -419 220 -419M 242 11C 284 11 313 14 338 24C 367 36 384 61 384 95C 384 157 335 206 240 206C 166 206 108 165 108 111C 108 82 128 54 154 33C 172 17 194 11 242 11" id="f001-glyph-58-72"/><path d="M 238 0L 238 -26C 174 -32 166 -38 166 -104L 166 -712C 132 -700 70 -683 18 -677L 18 -653C 81 -648 87 -645 87 -577L 87 -104C 87 -38 78 -32 15 -26L 15 0L 238 0" id="f001-glyph-58-77"/><path d="M 379 -106C 343 -72 305 -56 265 -56C 195 -56 117 -112 116 -248C 235 -252 360 -262 377 -265C 395 -269 400 -277 400 -297C 400 -375 333 -449 250 -449C 198 -449 144 -422 103 -376C 62 -331 37 -270 37 -201C 37 -88 109 12 232 12C 263 12 332 -6 395 -85L 379 -106M 226 -412C 281 -412 315 -364 314 -312C 314 -298 308 -292 290 -292C 232 -290 177 -289 121 -289C 136 -370 180 -412 226 -412" id="f001-glyph-58-70"/><path d="M 300 -253L 71 -253L 57 -198L 285 -198L 300 -253" id="f001-glyph-58-14"/><path d="M 513 0L 513 -26C 454 -31 447 -37 447 -103L 447 -278C 447 -398 390 -449 309 -449C 255 -449 201 -412 166 -376L 166 -712C 127 -700 67 -684 19 -677L 19 -654C 85 -648 87 -643 87 -580L 87 -103C 87 -37 78 -31 18 -26L 18 0L 230 0L 230 -26C 171 -32 166 -39 166 -103L 166 -341C 194 -373 232 -392 270 -392C 337 -392 368 -351 368 -269L 368 -103C 368 -38 360 -32 302 -26L 302 0L 513 0" id="f001-glyph-58-73"/><path d="M 517 -51L 485 -54C 448 -58 441 -63 441 -115L 441 -712C 404 -699 337 -684 285 -677L 285 -653C 357 -648 362 -645 362 -579L 362 -438C 339 -446 310 -449 296 -449C 160 -449 38 -340 38 -201C 38 -61 143 12 223 12C 235 12 262 6 301 -17L 362 -53L 362 12C 420 -9 495 -22 517 -26L 517 -51M 362 -85C 338 -67 302 -51 266 -51C 202 -51 129 -109 129 -228C 129 -373 213 -412 259 -412C 297 -412 338 -396 362 -361L 362 -85" id="f001-glyph-58-69"/><path d="M 433 -39L 423 -65C 413 -59 399 -54 387 -54C 370 -54 352 -69 352 -114L 352 -300C 352 -352 342 -393 307 -422C 285 -440 255 -449 225 -449C 168 -438 103 -399 75 -379C 56 -365 43 -354 43 -339C 43 -316 69 -296 87 -296C 101 -296 112 -303 116 -319C 124 -350 133 -372 146 -385C 156 -397 171 -405 191 -405C 241 -405 275 -364 275 -292L 275 -274C 253 -256 180 -229 120 -209C 65 -190 39 -159 39 -110C 39 -47 88 12 159 12C 189 12 237 -25 277 -52C 282 -35 288 -21 301 -7C 312 3 333 12 348 12L 433 -39M 275 -84C 256 -66 221 -49 195 -48C 164 -48 124 -73 124 -125C 124 -161 146 -180 185 -198C 206 -208 254 -229 275 -240L 275 -84" id="f001-glyph-58-66"/><path d="M 478 -437L 297 -437L 297 -412C 354 -404 361 -393 349 -355C 328 -292 285 -174 257 -106L 166 -357C 153 -394 158 -404 204 -412L 204 -437L 1 -437L 1 -412C 56 -404 66 -391 87 -336C 117 -265 162 -144 202 -30C 208 -13 208 0 203 15C 199 28 191 49 172 84C 149 128 129 153 98 173C 81 184 72 193 72 209C 72 233 101 257 129 257C 143 257 156 252 161 233C 175 179 197 122 264 -38C 333 -203 364 -286 389 -339C 416 -396 425 -404 478 -412L 478 -437" id="f001-glyph-58-90"/><path d="M 181 -343L 181 -452C 133 -431 89 -419 40 -411L 40 -389C 97 -381 102 -377 102 -311L 102 -104C 102 -38 95 -32 33 -26L 33 0L 263 0L 263 -26C 186 -32 181 -38 181 -104L 181 -287C 203 -343 235 -373 261 -373C 277 -373 289 -367 303 -352C 309 -346 318 -345 330 -350C 349 -359 362 -379 362 -399C 362 -423 338 -449 304 -449C 256 -449 213 -393 183 -343L 181 -343" id="f001-glyph-58-83"/><path d="M 380 -665C 170 -665 44 -498 44 -318C 44 -126 188 15 369 15C 552 15 703 -117 703 -333C 703 -533 550 -665 380 -665M 360 -629C 491 -629 601 -517 601 -306C 601 -114 501 -21 390 -21C 249 -21 146 -158 146 -346C 146 -533 248 -629 360 -629" id="f001-glyph-59-48"/><path d="M 518 -49L 490 -51C 452 -53 444 -60 444 -110L 444 -444C 391 -433 339 -429 287 -426L 287 -403C 359 -393 365 -389 365 -332L 365 -99C 331 -66 293 -51 257 -51C 212 -51 169 -75 169 -164L 169 -298C 169 -366 169 -413 172 -444C 124 -435 76 -429 29 -426L 29 -403C 86 -392 90 -388 90 -333L 90 -137C 90 -29 147 12 214 12C 241 12 262 4 291 -13C 319 -30 342 -48 365 -65L 365 6L 371 12C 421 -3 472 -17 518 -24L 518 -49" id="f001-glyph-59-86"/><path d="M 298 -36L 289 -62C 275 -55 252 -45 227 -45C 202 -45 169 -60 169 -141L 169 -398L 276 -398C 288 -405 291 -427 282 -437L 169 -437L 169 -574L 155 -576L 90 -510L 90 -437L 44 -437L 17 -408L 21 -398L 90 -398L 90 -107C 90 -28 125 12 188 12C 197 12 213 8 230 -1L 298 -36" id="f001-glyph-59-85"/><path d="M 169 -380L 169 -459C 122 -440 66 -423 24 -416L 24 -392C 86 -384 90 -382 90 -317L 90 135C 90 201 81 207 17 213L 17 240L 254 240L 254 213C 176 206 169 201 169 125L 169 -6C 182 1 209 11 238 12C 368 -12 487 -109 487 -260C 487 -359 421 -449 310 -449C 298 -449 279 -444 261 -434L 169 -380M 169 -347C 196 -367 237 -389 269 -389C 342 -389 403 -329 403 -222C 403 -109 347 -37 263 -37C 229 -37 191 -53 169 -76L 169 -347" id="f001-glyph-59-81"/><path d="M 238 0L 238 -26C 174 -32 166 -38 166 -104L 166 -712C 132 -700 70 -683 18 -677L 18 -653C 81 -648 87 -645 87 -577L 87 -104C 87 -38 78 -32 15 -26L 15 0L 238 0" id="f001-glyph-59-77"/><path d="M 433 -39L 423 -65C 413 -59 399 -54 387 -54C 370 -54 352 -69 352 -114L 352 -300C 352 -352 342 -393 307 -422C 285 -440 255 -449 225 -449C 168 -438 103 -399 75 -379C 56 -365 43 -354 43 -339C 43 -316 69 -296 87 -296C 101 -296 112 -303 116 -319C 124 -350 133 -372 146 -385C 156 -397 171 -405 191 -405C 241 -405 275 -364 275 -292L 275 -274C 253 -256 180 -229 120 -209C 65 -190 39 -159 39 -110C 39 -47 88 12 159 12C 189 12 237 -25 277 -52C 282 -35 288 -21 301 -7C 312 3 333 12 348 12L 433 -39M 275 -84C 256 -66 221 -49 195 -48C 164 -48 124 -73 124 -125C 124 -161 146 -180 185 -198C 206 -208 254 -229 275 -240L 275 -84" id="f001-glyph-59-66"/><path d="M 478 -437L 297 -437L 297 -412C 354 -404 361 -393 349 -355C 328 -292 285 -174 257 -106L 166 -357C 153 -394 158 -404 204 -412L 204 -437L 1 -437L 1 -412C 56 -404 66 -391 87 -336C 117 -265 162 -144 202 -30C 208 -13 208 0 203 15C 199 28 191 49 172 84C 149 128 129 153 98 173C 81 184 72 193 72 209C 72 233 101 257 129 257C 143 257 156 252 161 233C 175 179 197 122 264 -38C 333 -203 364 -286 389 -339C 416 -396 425 -404 478 -412L 478 -437" id="f001-glyph-59-90"/><path d="M 379 -106C 343 -72 305 -56 265 -56C 195 -56 117 -112 116 -248C 235 -252 360 -262 377 -265C 395 -269 400 -277 400 -297C 400 -375 333 -449 250 -449C 198 -449 144 -422 103 -376C 62 -331 37 -270 37 -201C 37 -88 109 12 232 12C 263 12 332 -6 395 -85L 379 -106M 226 -412C 281 -412 315 -364 314 -312C 314 -298 308 -292 290 -292C 232 -290 177 -289 121 -289C 136 -370 180 -412 226 -412" id="f001-glyph-59-70"/><path d="M 181 -343L 181 -452C 133 -431 89 -419 40 -411L 40 -389C 97 -381 102 -377 102 -311L 102 -104C 102 -38 95 -32 33 -26L 33 0L 263 0L 263 -26C 186 -32 181 -38 181 -104L 181 -287C 203 -343 235 -373 261 -373C 277 -373 289 -367 303 -352C 309 -346 318 -345 330 -350C 349 -359 362 -379 362 -399C 362 -423 338 -449 304 -449C 256 -449 213 -393 183 -343L 181 -343" id="f001-glyph-59-83"/><path d="M 114 12C 146 12 170 -11 170 -46C 170 -78 146 -103 114 -103C 82 -103 58 -78 58 -46C 58 -11 82 12 114 12" id="f001-glyph-60-15"/><path d="M 114 12C 146 12 170 -11 170 -46C 170 -78 146 -103 114 -103C 82 -103 58 -78 58 -46C 58 -11 82 12 114 12" id="f001-glyph-61-15"/><path d="M 114 12C 146 12 170 -11 170 -46C 170 -78 146 -103 114 -103C 82 -103 58 -78 58 -46C 58 -11 82 12 114 12" id="f001-glyph-62-15"/><path d="M 114 12C 146 12 170 -11 170 -46C 170 -78 146 -103 114 -103C 82 -103 58 -78 58 -46C 58 -11 82 12 114 12" id="f001-glyph-63-15"/><path d="M 114 12C 146 12 170 -11 170 -46C 170 -78 146 -103 114 -103C 82 -103 58 -78 58 -46C 58 -11 82 12 114 12" id="f001-glyph-64-15"/><path d="M 114 12C 146 12 170 -11 170 -46C 170 -78 146 -103 114 -103C 82 -103 58 -78 58 -46C 58 -11 82 12 114 12" id="f001-glyph-65-15"/><path d="M 114 12C 146 12 170 -11 170 -46C 170 -78 146 -103 114 -103C 82 -103 58 -78 58 -46C 58 -11 82 12 114 12" id="f001-glyph-66-15"/><path d="M 114 12C 146 12 170 -11 170 -46C 170 -78 146 -103 114 -103C 82 -103 58 -78 58 -46C 58 -11 82 12 114 12" id="f001-glyph-67-15"/><path d="M 114 12C 146 12 170 -11 170 -46C 170 -78 146 -103 114 -103C 82 -103 58 -78 58 -46C 58 -11 82 12 114 12" id="f001-glyph-68-15"/><path d="M 496 -358C 513 -358 536 -381 536 -404C 536 -427 516 -448 491 -448C 468 -448 443 -436 416 -411C 391 -388 355 -346 308 -283L 286 -338C 267 -385 255 -414 246 -427C 238 -441 228 -448 217 -448C 188 -448 146 -412 92 -341L 111 -321C 142 -359 164 -378 178 -378C 187 -378 199 -359 214 -320L 254 -212C 183 -114 134 -65 107 -65C 93 -65 85 -68 82 -75C 79 -82 73 -86 65 -86C 45 -86 23 -60 23 -39C 23 -8 43 12 71 12C 94 12 121 -2 150 -29C 179 -57 217 -106 265 -177L 306 -61C 321 -17 348 12 373 12C 412 12 463 -31 507 -96L 491 -119C 455 -80 429 -60 413 -60C 397 -60 379 -89 358 -148L 321 -250C 332 -267 354 -293 389 -332C 419 -365 441 -382 456 -382C 465 -382 474 -377 481 -368C 486 -361 491 -358 496 -358" id="f001-glyph-69-3745"/><path d="M 244 -607C 244 -635 227 -655 200 -655C 169 -655 146 -623 146 -594C 146 -566 166 -546 191 -546C 220 -546 244 -574 244 -607M 209 -114C 169 -82 144 -66 133 -66C 126 -66 125 -76 130 -96L 201 -370C 214 -422 210 -448 191 -448C 174 -448 151 -439 120 -420C 86 -401 56 -378 29 -352L 42 -328C 75 -357 99 -371 114 -371C 118 -371 118 -362 115 -345L 53 -92C 32 -5 45 12 68 12C 85 12 110 0 143 -23C 176 -45 202 -68 222 -91L 209 -114" id="f001-glyph-70-3730"/><path d="M 556 -393C 556 -425 538 -448 514 -448C 494 -448 480 -439 471 -420C 465 -407 463 -399 466 -394C 475 -377 480 -361 480 -346C 480 -293 433 -200 338 -67L 336 -67C 330 -150 321 -238 309 -330C 297 -415 285 -448 254 -448C 222 -448 180 -411 127 -337L 143 -311C 152 -324 165 -338 181 -353C 196 -366 205 -373 208 -373C 217 -373 224 -355 229 -320C 251 -184 264 -71 268 20C 201 106 117 179 17 239L 25 261L 137 235C 192 173 231 128 254 100C 277 72 304 36 335 -8C 432 -145 493 -236 520 -287C 544 -332 556 -367 556 -393" id="f001-glyph-71-3746"/><path d="M 244 -607C 244 -635 227 -655 200 -655C 169 -655 146 -623 146 -594C 146 -566 166 -546 191 -546C 220 -546 244 -574 244 -607M 209 -114C 169 -82 144 -66 133 -66C 126 -66 125 -76 130 -96L 201 -370C 214 -422 210 -448 191 -448C 174 -448 151 -439 120 -420C 86 -401 56 -378 29 -352L 42 -328C 75 -357 99 -371 114 -371C 118 -371 118 -362 115 -345L 53 -92C 32 -5 45 12 68 12C 85 12 110 0 143 -23C 176 -45 202 -68 222 -91L 209 -114" id="f001-glyph-72-3730"/></defs>

	
	<g>
		<path fill="none" d="M45.492,164.446    c0-5.336,4.327-9.663,9.656-9.663c5.336,0,9.663,4.327,9.663,9.663l0,0c0,5.329-4.327,9.656-9.663,9.656    C49.82,174.102,45.492,169.775,45.492,164.446z" stroke-miterlimit="10" stroke-width="0.5" stroke-linejoin="round" stroke="#000000"/>
		<path fill="none" d="M45.492,87.176    c0-5.336,4.327-9.656,9.656-9.656c5.336,0,9.663,4.32,9.663,9.656l0,0c0,5.336-4.327,9.656-9.663,9.656    C49.82,96.832,45.492,92.512,45.492,87.176z" stroke-miterlimit="10" stroke-width="0.5" stroke-linejoin="round" stroke="#000000"/>
		<path fill="none" d="M45.492,48.545    c0-5.336,4.327-9.663,9.656-9.663c5.336,0,9.663,4.327,9.663,9.663l0,0c0,5.329-4.327,9.656-9.663,9.656    C49.82,58.201,45.492,53.874,45.492,48.545z" stroke-miterlimit="10" stroke-width="0.5" stroke-linejoin="round" stroke="#000000"/>
		
			<rect x="52.252" y="106.493" fill="none" width="5.795" stroke-linejoin="round" height="38.634" stroke="#000000" stroke-width="0.5" stroke-miterlimit="10"/>
		<g>
			<g>
				
					<line fill="none" x1="6.859" x2="45.15" y1="87.176" y2="87.176" stroke-linejoin="round" stroke="#000000" stroke-width="0.5"/>
				<g>
					<path d="M43.244,84.648c0.625,1.055,1.597,1.884,2.63,2.528c-1.044,0.635-1.975,1.494-2.63,2.528H42.62       c0.655-1.002,1.443-1.873,2.415-2.528c-0.972-0.665-1.791-1.546-2.425-2.528H43.244z"/>
				</g>
			</g>
		</g>
		<g>
			<g>
				
					<line fill="none" x1="6.859" x2="45.15" y1="164.446" y2="164.446" stroke-linejoin="round" stroke="#000000" stroke-width="0.5"/>
				<g>
					<path d="M43.244,161.918c0.625,1.055,1.597,1.884,2.63,2.528c-1.044,0.635-1.975,1.494-2.63,2.528H42.62       c0.655-1.002,1.443-1.873,2.415-2.528c-0.972-0.665-1.791-1.546-2.425-2.528H43.244z"/>
				</g>
			</g>
		</g>
		<g>
			<g>
				
					<line fill="none" x1="6.859" x2="45.15" y1="48.545" y2="48.545" stroke-linejoin="round" stroke="#000000" stroke-width="0.5"/>
				<g>
					<path d="M43.244,46.016c0.625,1.055,1.597,1.884,2.63,2.528c-1.044,0.635-1.975,1.494-2.63,2.528H42.62       c0.655-1.002,1.443-1.873,2.415-2.528c-0.972-0.665-1.791-1.546-2.425-2.528H43.244z"/>
				</g>
			</g>
		</g>
		<path fill="none" d="M132.418,63.993    c0-5.329,4.327-9.656,9.656-9.656c5.336,0,9.663,4.327,9.663,9.656l0,0c0,5.336-4.327,9.663-9.663,9.663    C136.746,73.656,132.418,69.329,132.418,63.993z" stroke-miterlimit="10" stroke-width="0.5" stroke-linejoin="round" stroke="#000000"/>
		<path fill="none" d="M132.418,206.941    c0-5.336,4.327-9.663,9.656-9.663c5.336,0,9.663,4.327,9.663,9.663l0,0c0,5.336-4.327,9.656-9.663,9.656    C136.746,216.598,132.418,212.277,132.418,206.941z" stroke-miterlimit="10" stroke-width="0.5" stroke-linejoin="round" stroke="#000000"/>
		
			<rect x="139.178" y="119.052" fill="none" width="5.795" stroke-linejoin="round" height="45.394" stroke="#000000" stroke-width="0.5" stroke-miterlimit="10"/>
		<g>
			<g>
				
					<line fill="none" x1="64.812" x2="131.79" y1="48.545" y2="10.265" stroke-linejoin="round" stroke="#000000" stroke-width="0.5"/>
				<g>
					<path d="M128.88,9.016c1.066,0.606,2.321,0.843,3.538,0.89c-0.591,1.069-0.973,2.277-1.029,3.5l-0.542,0.31       c0.071-1.195,0.323-2.342,0.842-3.393c-1.174-0.095-2.322-0.453-3.36-0.992L128.88,9.016z"/>
				</g>
			</g>
		</g>
		<g>
			<g>
				<path fill="none" d="M64.812,48.545l25.03,5.717      c0.395-1.731,2.119-2.814,3.857-2.419c1.731,0.395,2.814,2.119,2.419,3.857l11.653,2.665c0.395-1.738,2.119-2.821,3.85-2.426      c1.738,0.395,2.821,2.126,2.426,3.857l17.244,3.259" stroke-width="0.5" stroke-linejoin="round" stroke="#000000"/>
				<g>
					<path d="M129.886,60.216c0.418,1.152,1.219,2.148,2.115,2.973c-1.144,0.43-2.218,1.101-3.054,1.996l-0.613-0.116       c0.83-0.863,1.766-1.572,2.843-2.036c-0.832-0.834-1.473-1.852-1.914-2.935L129.886,60.216z"/>
				</g>
			</g>
		</g>
		<g>
			<g>
				
					<line fill="none" x1="64.812" x2="132.95" y1="48.545" y2="202.416" stroke-linejoin="round" stroke="#000000" stroke-width="0.5"/>
				<g>
					<path d="M134.49,199.649c-0.711,0.998-1.076,2.223-1.247,3.429c-1.003-0.698-2.166-1.201-3.377-1.381l-0.253-0.571       c1.182,0.193,2.297,0.561,3.29,1.184c0.214-1.158,0.688-2.264,1.33-3.241L134.49,199.649z"/>
				</g>
			</g>
		</g>
		<g>
			<g>
				<path fill="none" d="M64.812,87.176l8.961-10.242      c-1.336-1.172-1.472-3.21-0.3-4.545c1.165-1.336,3.203-1.472,4.538-0.3l53.923-59.839" stroke-width="0.5" stroke-linejoin="round" stroke="#000000"/>
				<g>
					<path d="M128.779,11.974c1.202,0.242,2.468,0.075,3.639-0.262c-0.227,1.2-0.212,2.467,0.117,3.647l-0.418,0.464       c-0.306-1.158-0.426-2.326-0.262-3.487c-1.145,0.277-2.347,0.296-3.502,0.109L128.779,11.974z"/>
				</g>
			</g>
		</g>
		<g>
			<g>
				<path fill="none" d="M64.812,87.176l11.339-3.891      c-0.579-1.676,0.32-3.509,1.997-4.089c1.683-0.572,3.516,0.32,4.096,2.003l19.292-6.617c-0.579-1.683,0.32-3.509,2.003-4.089      c1.676-0.572,3.509,0.32,4.089,2.003l23.685-7.669" stroke-width="0.5" stroke-linejoin="round" stroke="#000000"/>
				<g>
					<path d="M128.72,63.011c0.919,0.811,2.099,1.3,3.281,1.595c-0.798,0.925-1.419,2.03-1.724,3.216l-0.594,0.192       c0.314-1.155,0.796-2.226,1.519-3.149c-1.13-0.333-2.18-0.919-3.086-1.658L128.72,63.011z"/>
				</g>
			</g>
		</g>
		<g>
			<g>
				<path fill="none" d="M64.812,87.176l17.459,30.931      c1.547-0.872,3.516-0.327,4.389,1.22c0.872,1.554,0.327,3.516-1.22,4.389l47.072,78.918" stroke-width="0.5" stroke-linejoin="round" stroke="#000000"/>
				<g>
					<path d="M133.706,199.701c-0.586,1.077-0.8,2.336-0.824,3.554c-1.08-0.571-2.295-0.931-3.519-0.964l-0.32-0.536       c1.196,0.049,2.348,0.28,3.409,0.779c0.073-1.176,0.41-2.33,0.929-3.378L133.706,199.701z"/>
				</g>
			</g>
		</g>
		<g>
			<g>
				
					<line fill="none" x1="64.812" x2="131.796" y1="164.446" y2="204.113" stroke-linejoin="round" stroke="#000000" stroke-width="0.5"/>
				<g>
					<path d="M131.443,200.966c0,1.226,0.414,2.434,0.975,3.516c-1.222,0.014-2.461,0.279-3.552,0.835l-0.537-0.318       c1.074-0.529,2.196-0.876,3.366-0.945c-0.498-1.068-0.753-2.243-0.799-3.411L131.443,200.966z"/>
				</g>
			</g>
		</g>
		<g>
			<g>
				<path fill="none" d="M64.812,164.446l23.749-54.291      c-1.629-0.709-2.371-2.61-1.663-4.239c0.716-1.629,2.617-2.371,4.245-1.656l41.407-91.126" stroke-width="0.5" stroke-linejoin="round" stroke="#000000"/>
				<g>
					<path d="M129.459,13.824c1.219-0.132,2.376-0.674,3.39-1.349c0.146,1.213,0.543,2.416,1.214,3.441l-0.258,0.568       c-0.642-1.011-1.108-2.088-1.303-3.245c-1.008,0.61-2.148,0.991-3.305,1.162L129.459,13.824z"/>
				</g>
			</g>
		</g>
		<g>
			<g>
				<path fill="none" d="M64.812,164.446l21.922-32.573      c-1.472-0.995-1.867-2.998-0.872-4.47c0.995-1.479,2.992-1.867,4.47-0.872l2.951-4.395c-1.472-0.988-1.867-2.992-0.872-4.464      c0.995-1.479,2.992-1.867,4.47-0.872l35.517-49.2" stroke-width="0.5" stroke-linejoin="round" stroke="#000000"/>
				<g>
					<path d="M129.232,67.665c1.221,0.111,2.462-0.192,3.59-0.653c-0.096,1.218,0.055,2.476,0.51,3.613l-0.365,0.506       c-0.43-1.118-0.674-2.266-0.636-3.438c-1.108,0.399-2.302,0.547-3.47,0.487L129.232,67.665z"/>
				</g>
			</g>
		</g>
		<path fill="none" d="M219.345,48.545    c0-5.336,4.32-9.663,9.656-9.663c5.336,0,9.663,4.327,9.663,9.663l0,0c0,5.329-4.327,9.656-9.663,9.656    C223.665,58.201,219.345,53.874,219.345,48.545z" stroke-miterlimit="10" stroke-width="0.5" stroke-linejoin="round" stroke="#000000"/>
		<path fill="none" d="M219.345,87.176    c0-5.336,4.32-9.656,9.656-9.656c5.336,0,9.663,4.32,9.663,9.656l0,0c0,5.336-4.327,9.656-9.663,9.656    C223.665,96.832,219.345,92.512,219.345,87.176z" stroke-miterlimit="10" stroke-width="0.5" stroke-linejoin="round" stroke="#000000"/>
		<path fill="none" d="M219.345,164.446    c0-5.336,4.32-9.663,9.656-9.663c5.336,0,9.663,4.327,9.663,9.663l0,0c0,5.329-4.327,9.656-9.663,9.656    C223.665,174.102,219.345,169.775,219.345,164.446z" stroke-miterlimit="10" stroke-width="0.5" stroke-linejoin="round" stroke="#000000"/>
		<g>
			<g>
				
					<line fill="none" x1="238.664" x2="275.665" y1="48.545" y2="48.545" stroke-linejoin="round" stroke="#000000" stroke-width="0.5"/>
				<g>
					<path d="M273.759,46.016c0.625,1.055,1.597,1.884,2.63,2.528c-1.044,0.635-1.975,1.494-2.63,2.528h-0.624       c0.655-1.002,1.443-1.873,2.415-2.528c-0.972-0.665-1.791-1.546-2.425-2.528H273.759z"/>
				</g>
			</g>
		</g>
		<g>
			<g>
				
					<line fill="none" x1="238.664" x2="275.665" y1="87.176" y2="87.176" stroke-linejoin="round" stroke="#000000" stroke-width="0.5"/>
				<g>
					<path d="M273.759,84.648c0.625,1.055,1.597,1.884,2.63,2.528c-1.044,0.635-1.975,1.494-2.63,2.528h-0.624       c0.655-1.002,1.443-1.873,2.415-2.528c-0.972-0.665-1.791-1.546-2.425-2.528H273.759z"/>
				</g>
			</g>
		</g>
		<g>
			<g>
				
					<line fill="none" x1="238.664" x2="275.665" y1="164.446" y2="164.446" stroke-linejoin="round" stroke="#000000" stroke-width="0.5"/>
				<g>
					<path d="M273.759,161.918c0.625,1.055,1.597,1.884,2.63,2.528c-1.044,0.635-1.975,1.494-2.63,2.528h-0.624       c0.655-1.002,1.443-1.873,2.415-2.528c-0.972-0.665-1.791-1.546-2.425-2.528H273.759z"/>
				</g>
			</g>
		</g>
		<g>
			<g>
				
					<line fill="none" x1="151.738" x2="218.748" y1="9.906" y2="46.7" stroke-linejoin="round" stroke="#000000" stroke-width="0.5"/>
				<g>
					<path d="M218.294,43.566c0.04,1.225,0.493,2.42,1.089,3.482c-1.221,0.054-2.45,0.359-3.523,0.95l-0.547-0.3       c1.056-0.564,2.166-0.947,3.334-1.054c-0.532-1.051-0.826-2.217-0.909-3.383L218.294,43.566z"/>
				</g>
			</g>
		</g>
		<g>
			<g>
				<path fill="none" d="M151.738,9.906l54.4,62.183      c1.342-1.172,3.373-1.036,4.545,0.3c1.172,1.336,1.036,3.373-0.3,4.545l8.703,7.409" stroke-width="0.5" stroke-linejoin="round" stroke="#000000"/>
				<g>
					<path d="M219.273,81.181c-0.208,1.208-0.005,2.469,0.364,3.63c-1.206-0.193-2.472-0.143-3.642,0.22l-0.475-0.405       c1.148-0.339,2.313-0.491,3.478-0.36c-0.309-1.137-0.362-2.338-0.208-3.497L219.273,81.181z"/>
				</g>
			</g>
		</g>
		<g>
			<g>
				<path fill="none" d="M151.738,9.906l41.276,94.354      c1.629-0.716,3.53,0.027,4.239,1.656c0.716,1.629-0.027,3.53-1.656,4.239l24.01,50.462" stroke-width="0.5" stroke-linejoin="round" stroke="#000000"/>
				<g>
					<path d="M221.07,157.809c-0.684,1.017-1.015,2.251-1.153,3.461c-1.022-0.67-2.198-1.142-3.413-1.289l-0.268-0.563       c1.187,0.161,2.311,0.498,3.321,1.094c0.183-1.164,0.626-2.281,1.241-3.276L221.07,157.809z"/>
				</g>
			</g>
		</g>
		<g>
			<g>
				
					<line fill="none" x1="151.738" x2="218.513" y1="206.941" y2="165.032" stroke-linejoin="round" stroke="#000000" stroke-width="0.5"/>
				<g>
					<path d="M215.554,163.904c1.09,0.561,2.354,0.747,3.572,0.743c-0.547,1.093-0.879,2.315-0.884,3.54l-0.529,0.332       c0.022-1.197,0.226-2.353,0.702-3.425c-1.177-0.046-2.339-0.357-3.398-0.852L215.554,163.904z"/>
				</g>
			</g>
		</g>
		<g>
			<g>
				<path fill="none" d="M151.738,206.941l46.979-83.226      c-1.547-0.872-2.099-2.835-1.22-4.389c0.872-1.547,2.835-2.092,4.382-1.22l16.948-29.323" stroke-width="0.5" stroke-linejoin="round" stroke="#000000"/>
				<g>
					<path d="M215.683,89.17c1.226-0.013,2.43-0.44,3.505-1.012c0.027,1.221,0.305,2.458,0.873,3.543l-0.312,0.54       c-0.54-1.069-0.9-2.186-0.981-3.356c-1.062,0.509-2.235,0.777-3.403,0.835L215.683,89.17z"/>
				</g>
			</g>
		</g>
		<g>
			<g>
				
					<line fill="none" x1="151.738" x2="219.057" y1="206.941" y2="51.26" stroke-linejoin="round" stroke="#000000" stroke-width="0.5"/>
				<g>
					<path d="M215.98,52.006c1.216-0.155,2.363-0.718,3.365-1.411c0.168,1.21,0.588,2.406,1.277,3.418l-0.248,0.573       c-0.66-0.999-1.147-2.068-1.362-3.22c-0.996,0.628-2.13,1.03-3.283,1.223L215.98,52.006z"/>
				</g>
			</g>
		</g>
		<g>
			<g>
				<path fill="none" d="M151.738,63.993l35.538,52.806      c1.472-0.995,3.475-0.607,4.464,0.872c0.995,1.472,0.607,3.475-0.872,4.464l2.958,4.395c1.472-0.995,3.475-0.607,4.47,0.872      c0.988,1.472,0.6,3.475-0.872,4.47l21.493,29.129" stroke-width="0.5" stroke-linejoin="round" stroke="#000000"/>
				<g>
					<path d="M219.817,157.966c-0.478,1.129-0.568,2.403-0.473,3.618c-1.131-0.463-2.375-0.702-3.596-0.615l-0.37-0.502       c1.195-0.068,2.364,0.049,3.468,0.442c-0.042-1.177,0.181-2.359,0.595-3.453L219.817,157.966z"/>
				</g>
			</g>
		</g>
		<g>
			<g>
				<path fill="none" d="M151.738,63.993l24.791,8.505      c0.579-1.683,2.406-2.576,4.089-2.003c1.683,0.579,2.576,2.406,2.003,4.089l19.292,6.617c0.579-1.683,2.406-2.576,4.089-2.003      c1.683,0.579,2.583,2.412,2.003,4.089l10.488,3.046" stroke-width="0.5" stroke-linejoin="round" stroke="#000000"/>
				<g>
					<path d="M217.368,83.371c0.306,1.187,1.008,2.254,1.821,3.162c-1.18,0.318-2.313,0.884-3.231,1.694l-0.599-0.174       c0.908-0.78,1.908-1.396,3.024-1.754c-0.748-0.91-1.289-1.984-1.624-3.104L217.368,83.371z"/>
				</g>
			</g>
		</g>
		<g>
			<g>
				<path fill="none" d="M151.738,63.993l18.372-4.198      c-0.395-1.731,0.688-3.462,2.419-3.857c1.731-0.395,3.462,0.688,3.857,2.426l11.646-2.665c-0.395-1.738,0.688-3.462,2.426-3.857      c1.731-0.395,3.455,0.688,3.857,2.419l23.968-4.471" stroke-width="0.5" stroke-linejoin="round" stroke="#000000"/>
				<g>
					<path d="M215.945,47.655c0.807,0.922,1.915,1.559,3.049,2.003c-0.91,0.815-1.668,1.831-2.122,2.968l-0.613,0.114       c0.46-1.105,1.075-2.106,1.91-2.928c-1.078-0.475-2.044-1.191-2.848-2.041L215.945,47.655z"/>
				</g>
			</g>
		</g>
		
			<rect x="226.105" y="106.493" fill="none" width="5.795" stroke-linejoin="round" height="38.634" stroke="#000000" stroke-width="0.5" stroke-miterlimit="10"/>
		
			<rect x="29.376" y="223.701" fill="none" width="52.155" stroke-linejoin="round" height="19.316" stroke="#000000" stroke-width="0.5" stroke-miterlimit="10"/>
		
			<rect x="95.818" y="224.853" fill="none" width="83.757" stroke-linejoin="round" height="19.316" stroke="#000000" stroke-width="0.5" stroke-miterlimit="10"/>
		
			<rect x="195.221" y="223.701" fill="none" width="60.313" stroke-linejoin="round" height="19.316" stroke="#000000" stroke-width="0.5" stroke-miterlimit="10"/>
		<path fill="none" d="M132.418,9.906    c0-5.329,4.327-9.656,9.656-9.656c5.336,0,9.663,4.327,9.663,9.656l0,0c0,5.336-4.327,9.663-9.663,9.663    C136.746,19.569,132.418,15.242,132.418,9.906z" stroke-miterlimit="10" stroke-width="0.5" stroke-linejoin="round" stroke="#000000"/>
		
			<path fill="none" stroke-linejoin="round" stroke-dasharray="0.5,2" d="    M0.25,106.407c0-44.717,9.405-80.963,21.003-80.963s21.002,36.246,21.002,80.963l0,0c0,44.71-9.404,80.963-21.002,80.963    S0.25,151.117,0.25,106.407z" stroke="#000000" stroke-width="0.5" stroke-miterlimit="10"/>
		
			<path fill="none" stroke-linejoin="round" stroke-dasharray="0.5,2" d="    M241.71,113.794c0-44.71,9.404-80.963,21.002-80.963c11.598,0,21.002,36.253,21.002,80.963l0,0    c0,44.717-9.404,80.963-21.002,80.963C251.114,194.757,241.71,158.511,241.71,113.794z" stroke="#000000" stroke-width="0.5" stroke-miterlimit="10"/>
		<g id="f001-page1_6_" transform="matrix(0.996 0 0 0.996 0 0)">
			<g transform="matrix(1.004 0 0 1.004 88.2655 27.5161)"><use transform="matrix(0.007968 0 0 0.007968 0 0)" xlink:href="#f001-glyph-0-3723"/></g><g transform="matrix(1.004 0 0 1.004 92.0173 29.3559)"><use transform="matrix(0.005976 0 0 0.005976 0 0)" xlink:href="#f001-glyph-1-21"/><use transform="matrix(0.005976 0 0 0.005976 2.85938 0)" xlink:href="#f001-glyph-1-21"/></g></g>
		<g>
			<g transform="matrix(1 0 0 1 78.4519 50.0232)"><use transform="matrix(0.008 0 0 0.008 0 0)" xlink:href="#f001-glyph-2-3723"/></g><g transform="matrix(1 0 0 1 82.2039 51.8632)"><use transform="matrix(0.006 0 0 0.006 0 0)" xlink:href="#f001-glyph-3-21"/><use transform="matrix(0.006 0 0 0.006 2.875 0)" xlink:href="#f001-glyph-3-22"/></g></g>
		<g>
			<g transform="matrix(1 0 0 1 62.9359 77.063)"><use transform="matrix(0.008 0 0 0.008 0 0)" xlink:href="#f001-glyph-4-3723"/></g><g transform="matrix(1 0 0 1 66.6879 78.9029)"><use transform="matrix(0.006 0 0 0.006 0 0)" xlink:href="#f001-glyph-5-22"/><use transform="matrix(0.006 0 0 0.006 2.875 0)" xlink:href="#f001-glyph-5-21"/></g></g>
		<g>
			<g transform="matrix(1 0 0 1 71.2288 90.5893)"><use transform="matrix(0.008 0 0 0.008 0 0)" xlink:href="#f001-glyph-6-3723"/></g><g transform="matrix(1 0 0 1 74.9808 92.4293)"><use transform="matrix(0.006 0 0 0.006 0 0)" xlink:href="#f001-glyph-7-22"/><use transform="matrix(0.006 0 0 0.006 2.875 0)" xlink:href="#f001-glyph-7-22"/></g></g>
		<g>
			<g transform="matrix(1 0 0 1 72.1829 100.812)"><use transform="matrix(0.008 0 0 0.008 0 0)" xlink:href="#f001-glyph-8-3723"/></g><g transform="matrix(1 0 0 1 75.9349 102.652)"><use transform="matrix(0.006 0 0 0.006 0 0)" xlink:href="#f001-glyph-9-22"/><use transform="matrix(0.006 0 0 0.006 2.875 0)" xlink:href="#f001-glyph-9-3735"/></g></g>
		<g>
			<g transform="matrix(1 0 0 1 68.0629 132.9181)"><use transform="matrix(0.008 0 0 0.008 0 0)" xlink:href="#f001-glyph-10-3723"/></g><g transform="matrix(1 0 0 1 71.8149 134.7581)"><use transform="matrix(0.006 0 0 0.006 0 0)" xlink:href="#f001-glyph-11-3731"/></g><g transform="matrix(1 0 0 1 74.3949 134.7581)"><use transform="matrix(0.006 0 0 0.006 0 0)" xlink:href="#f001-glyph-12-21"/></g></g>
		<g>
			<g transform="matrix(1 0 0 1 79.0379 151.0347)"><use transform="matrix(0.008 0 0 0.008 0 0)" xlink:href="#f001-glyph-13-3723"/></g><g transform="matrix(1 0 0 1 82.7899 152.8746)"><use transform="matrix(0.006 0 0 0.006 0 0)" xlink:href="#f001-glyph-14-3731"/></g><g transform="matrix(1 0 0 1 85.3699 152.8746)"><use transform="matrix(0.006 0 0 0.006 0 0)" xlink:href="#f001-glyph-15-22"/></g></g>
		<g>
			<g transform="matrix(1 0 0 1 88.4832 191.602)"><use transform="matrix(0.008 0 0 0.008 0 0)" xlink:href="#f001-glyph-16-3723"/></g><g transform="matrix(1 0 0 1 92.2353 193.442)"><use transform="matrix(0.006 0 0 0.006 0 0)" xlink:href="#f001-glyph-17-3731"/></g><g transform="matrix(1 0 0 1 94.8152 193.442)"><use transform="matrix(0.006 0 0 0.006 0 0)" xlink:href="#f001-glyph-18-3735"/></g></g>
		<g>
			<g transform="matrix(1 0 0 1 139.8492 192.5218)"><use transform="matrix(0.008 0 0 0.008 0 0)" xlink:href="#f001-glyph-19-3724"/></g><g transform="matrix(1 0 0 1 142.9932 194.3618)"><use transform="matrix(0.006 0 0 0.006 0 0)" xlink:href="#f001-glyph-20-3735"/></g></g>
		<g>
			<g transform="matrix(1 0 0 1 140.2894 209.8032)"><use transform="matrix(0.008 0 0 0.008 0 0)" xlink:href="#f001-glyph-21-3735"/></g></g>
		<g>
			<g transform="matrix(1 0 0 1 52.7629 166.3741)"><use transform="matrix(0.008 0 0 0.008 0 0)" xlink:href="#f001-glyph-22-3731"/></g></g>
		<g>
			<g transform="matrix(1 0 0 1 105.2776 137.5151)"><use transform="matrix(0.008 0 0 0.008 0 0)" xlink:href="#f001-glyph-23-3723"/></g><g transform="matrix(1 0 0 1 109.0297 139.3551)"><use transform="matrix(0.006 0 0 0.006 0 0)" xlink:href="#f001-glyph-24-21"/><use transform="matrix(0.006 0 0 0.006 2.875 0)" xlink:href="#f001-glyph-24-3735"/></g></g>
		<g>
			<g transform="matrix(1 0 0 1 139.8492 26.4859)"><use transform="matrix(0.008 0 0 0.008 0 0)" xlink:href="#f001-glyph-25-3724"/></g><g transform="matrix(1 0 0 1 142.9932 28.3258)"><use transform="matrix(0.006 0 0 0.006 0 0)" xlink:href="#f001-glyph-26-21"/></g></g>
		<g>
			<g transform="matrix(1 0 0 1 138.7174 80.5522)"><use transform="matrix(0.008 0 0 0.008 0 0)" xlink:href="#f001-glyph-27-3724"/></g><g transform="matrix(1 0 0 1 141.8615 82.3922)"><use transform="matrix(0.006 0 0 0.006 0 0)" xlink:href="#f001-glyph-28-22"/></g></g>
		<g>
			<g transform="matrix(1 0 0 1 225.2943 166.3743)"><use transform="matrix(0.008 0 0 0.008 0 0)" xlink:href="#f001-glyph-29-3734"/></g></g>
		<g>
			<g transform="matrix(1 0 0 1 225.2943 88.8419)"><use transform="matrix(0.008 0 0 0.008 0 0)" xlink:href="#f001-glyph-30-22"/></g></g>
		<g>
			<g transform="matrix(1 0 0 1 225.2943 49.9075)"><use transform="matrix(0.008 0 0 0.008 0 0)" xlink:href="#f001-glyph-31-21"/></g></g>
		<g>
			<g transform="matrix(1 0 0 1 139.8494 67.0121)"><use transform="matrix(0.008 0 0 0.008 0 0)" xlink:href="#f001-glyph-32-22"/></g></g>
		<g>
			<g transform="matrix(1 0 0 1 139.8495 11.7121)"><use transform="matrix(0.008 0 0 0.008 0 0)" xlink:href="#f001-glyph-33-21"/></g></g>
		<g>
			<g transform="matrix(1 0 0 1 53.8259 91.6429)"><use transform="matrix(0.008 0 0 0.008 0 0)" xlink:href="#f001-glyph-34-22"/></g></g>
		<g>
			<g transform="matrix(1 0 0 1 53.826 50.0231)"><use transform="matrix(0.008 0 0 0.008 0 0)" xlink:href="#f001-glyph-35-21"/></g></g>
		<g id="f001-page1_7_" transform="matrix(0.996 0 0 0.996 0 0)">
			<g transform="matrix(1.004 0 0 1.004 163.9992 148.3167)"><use transform="matrix(0.007968 0 0 0.007968 0 0)" xlink:href="#f001-glyph-36-3692"/></g><g transform="matrix(1.004 0 0 1.004 167.7432 150.1566)"><use transform="matrix(0.005976 0 0 0.005976 0 0)" xlink:href="#f001-glyph-37-3735"/></g><g transform="matrix(1.004 0 0 1.004 170.8151 150.1566)"><use transform="matrix(0.005976 0 0 0.005976 0 0)" xlink:href="#f001-glyph-38-21"/></g></g>
		<g>
			<g transform="matrix(1 0 0 1 179.581 162.6266)"><use transform="matrix(0.008 0 0 0.008 0 0)" xlink:href="#f001-glyph-39-3692"/></g><g transform="matrix(1 0 0 1 183.325 164.4665)"><use transform="matrix(0.006 0 0 0.006 0 0)" xlink:href="#f001-glyph-40-3735"/></g><g transform="matrix(1 0 0 1 186.397 164.4665)"><use transform="matrix(0.006 0 0 0.006 0 0)" xlink:href="#f001-glyph-41-22"/></g></g>
		<g>
			<g transform="matrix(1 0 0 1 186.0888 191.6022)"><use transform="matrix(0.008 0 0 0.008 0 0)" xlink:href="#f001-glyph-42-3692"/></g><g transform="matrix(1 0 0 1 189.8328 193.4421)"><use transform="matrix(0.006 0 0 0.006 0 0)" xlink:href="#f001-glyph-43-3735"/></g><g transform="matrix(1 0 0 1 192.9048 193.4421)"><use transform="matrix(0.006 0 0 0.006 0 0)" xlink:href="#f001-glyph-44-3734"/></g></g>
		<g>
			<g transform="matrix(1 0 0 1 181.8972 23.5489)"><use transform="matrix(0.008 0 0 0.008 0 0)" xlink:href="#f001-glyph-45-3692"/></g><g transform="matrix(1 0 0 1 185.6412 25.3889)"><use transform="matrix(0.006 0 0 0.006 0 0)" xlink:href="#f001-glyph-46-21"/><use transform="matrix(0.006 0 0 0.006 2.875 0)" xlink:href="#f001-glyph-46-21"/></g></g>
		<g>
			<g transform="matrix(1 0 0 1 176.8847 37.0685)"><use transform="matrix(0.008 0 0 0.008 0 0)" xlink:href="#f001-glyph-47-3692"/></g><g transform="matrix(1 0 0 1 180.6287 38.9084)"><use transform="matrix(0.006 0 0 0.006 0 0)" xlink:href="#f001-glyph-48-21"/><use transform="matrix(0.006 0 0 0.006 2.875 0)" xlink:href="#f001-glyph-48-22"/></g></g>
		<g>
			<g transform="matrix(1 0 0 1 153.7011 40.9322)"><use transform="matrix(0.008 0 0 0.008 0 0)" xlink:href="#f001-glyph-49-3692"/></g><g transform="matrix(1 0 0 1 157.4451 42.7722)"><use transform="matrix(0.006 0 0 0.006 0 0)" xlink:href="#f001-glyph-50-21"/><use transform="matrix(0.006 0 0 0.006 2.875 0)" xlink:href="#f001-glyph-50-3734"/></g></g>
		<g>
			<g transform="matrix(1 0 0 1 155.9765 58.3165)"><use transform="matrix(0.008 0 0 0.008 0 0)" xlink:href="#f001-glyph-51-3692"/></g><g transform="matrix(1 0 0 1 159.7205 60.1565)"><use transform="matrix(0.006 0 0 0.006 0 0)" xlink:href="#f001-glyph-52-22"/><use transform="matrix(0.006 0 0 0.006 2.875 0)" xlink:href="#f001-glyph-52-21"/></g></g>
		<g>
			<g transform="matrix(1 0 0 1 164.2099 76.1429)"><use transform="matrix(0.008 0 0 0.008 0 0)" xlink:href="#f001-glyph-53-3692"/></g><g transform="matrix(1 0 0 1 167.9539 77.9829)"><use transform="matrix(0.006 0 0 0.006 0 0)" xlink:href="#f001-glyph-54-22"/><use transform="matrix(0.006 0 0 0.006 2.875 0)" xlink:href="#f001-glyph-54-22"/></g></g>
		<g>
			<g transform="matrix(1 0 0 1 158.6289 95.0192)"><use transform="matrix(0.008 0 0 0.008 0 0)" xlink:href="#f001-glyph-55-3692"/></g><g transform="matrix(1 0 0 1 162.3729 96.8591)"><use transform="matrix(0.006 0 0 0.006 0 0)" xlink:href="#f001-glyph-56-22"/><use transform="matrix(0.006 0 0 0.006 2.875 0)" xlink:href="#f001-glyph-56-3734"/></g></g>
		<g id="f001-page1_8_" transform="matrix(0.996 0 0 0.996 0 0)">
			<g transform="matrix(1.004 0 0 1.004 35.1243 237.6064)"><use transform="matrix(0.007968 0 0 0.007968 0 0)" xlink:href="#f001-glyph-57-42"/><use transform="matrix(0.007968 0 0 0.007968 2.59375 0)" xlink:href="#f001-glyph-57-79"/><use transform="matrix(0.007968 0 0 0.007968 6.79688 0)" xlink:href="#f001-glyph-57-81"/><use transform="matrix(0.007968 0 0 0.007968 10.8906 0)" xlink:href="#f001-glyph-57-86"/><use transform="matrix(0.007968 0 0 0.007968 15.0156 0)" xlink:href="#f001-glyph-57-85"/><use transform="matrix(0.007968 0 0 0.007968 19.25 0)" xlink:href="#f001-glyph-57-77"/><use transform="matrix(0.007968 0 0 0.007968 21.2812 0)" xlink:href="#f001-glyph-57-66"/><use transform="matrix(0.007968 0 0 0.007968 24.625 0)" xlink:href="#f001-glyph-57-90"/><use transform="matrix(0.007968 0 0 0.007968 28.2188 0)" xlink:href="#f001-glyph-57-70"/><use transform="matrix(0.007968 0 0 0.007968 31.5938 0)" xlink:href="#f001-glyph-57-83"/></g></g>
		<g>
			<g transform="matrix(1 0 0 1 108.5664 236.6811)"><use transform="matrix(0.008 0 0 0.008 0 0)" xlink:href="#f001-glyph-58-52"/><use transform="matrix(0.008 0 0 0.008 3.75 0)" xlink:href="#f001-glyph-58-74"/><use transform="matrix(0.008 0 0 0.008 5.89062 0)" xlink:href="#f001-glyph-58-79"/><use transform="matrix(0.008 0 0 0.008 10.2031 0)" xlink:href="#f001-glyph-58-72"/><use transform="matrix(0.008 0 0 0.008 14 0)" xlink:href="#f001-glyph-58-77"/><use transform="matrix(0.008 0 0 0.008 16.0312 0)" xlink:href="#f001-glyph-58-70"/><use transform="matrix(0.008 0 0 0.008 19.4375 0)" xlink:href="#f001-glyph-58-14"/><use transform="matrix(0.008 0 0 0.008 22.2812 0)" xlink:href="#f001-glyph-58-73"/><use transform="matrix(0.008 0 0 0.008 26.5469 0)" xlink:href="#f001-glyph-58-74"/><use transform="matrix(0.008 0 0 0.008 28.6875 0)" xlink:href="#f001-glyph-58-69"/><use transform="matrix(0.008 0 0 0.008 32.9062 0)" xlink:href="#f001-glyph-58-69"/><use transform="matrix(0.008 0 0 0.008 37.125 0)" xlink:href="#f001-glyph-58-70"/><use transform="matrix(0.008 0 0 0.008 40.5312 0)" xlink:href="#f001-glyph-58-79"/><use transform="matrix(0.008 0 0 0.008 46.7188 0)" xlink:href="#f001-glyph-58-77"/><use transform="matrix(0.008 0 0 0.008 48.7656 0)" xlink:href="#f001-glyph-58-66"/><use transform="matrix(0.008 0 0 0.008 52.1406 0)" xlink:href="#f001-glyph-58-90"/><use transform="matrix(0.008 0 0 0.008 55.75 0)" xlink:href="#f001-glyph-58-70"/><use transform="matrix(0.008 0 0 0.008 59.1562 0)" xlink:href="#f001-glyph-58-83"/></g></g>
		<g>
			<g transform="matrix(1 0 0 1 206.7574 236.6811)"><use transform="matrix(0.008 0 0 0.008 0 0)" xlink:href="#f001-glyph-59-48"/><use transform="matrix(0.008 0 0 0.008 6 0)" xlink:href="#f001-glyph-59-86"/><use transform="matrix(0.008 0 0 0.008 10.1562 0)" xlink:href="#f001-glyph-59-85"/><use transform="matrix(0.008 0 0 0.008 12.5156 0)" xlink:href="#f001-glyph-59-81"/><use transform="matrix(0.008 0 0 0.008 16.625 0)" xlink:href="#f001-glyph-59-86"/><use transform="matrix(0.008 0 0 0.008 20.7812 0)" xlink:href="#f001-glyph-59-85"/><use transform="matrix(0.008 0 0 0.008 25.0312 0)" xlink:href="#f001-glyph-59-77"/><use transform="matrix(0.008 0 0 0.008 27.0781 0)" xlink:href="#f001-glyph-59-66"/><use transform="matrix(0.008 0 0 0.008 30.4531 0)" xlink:href="#f001-glyph-59-90"/><use transform="matrix(0.008 0 0 0.008 34.0625 0)" xlink:href="#f001-glyph-59-70"/><use transform="matrix(0.008 0 0 0.008 37.4688 0)" xlink:href="#f001-glyph-59-83"/></g></g>
		<g>
			<g id="f001-page1_1_" transform="matrix(0.996 0 0 0.996 0 0)">
				<g transform="matrix(1.004 0 0 1.004 228.9167 122.6216)"><use transform="matrix(0.007968 0 0 0.007968 0 0)" xlink:href="#f001-glyph-60-15"/></g><g transform="matrix(1.004 0 0 1.004 228.9167 126.622)"><use transform="matrix(0.007968 0 0 0.007968 0 0)" xlink:href="#f001-glyph-61-15"/></g><g transform="matrix(1.004 0 0 1.004 228.9167 130.6218)"><use transform="matrix(0.007968 0 0 0.007968 0 0)" xlink:href="#f001-glyph-62-15"/></g></g>
		</g>
		<g>
			<g id="f001-page1_2_" transform="matrix(0.996 0 0 0.996 0 0)">
				<g transform="matrix(1.004 0 0 1.004 141.7682 138.8826)"><use transform="matrix(0.007968 0 0 0.007968 0 0)" xlink:href="#f001-glyph-63-15"/></g><g transform="matrix(1.004 0 0 1.004 141.7682 142.8829)"><use transform="matrix(0.007968 0 0 0.007968 0 0)" xlink:href="#f001-glyph-64-15"/></g><g transform="matrix(1.004 0 0 1.004 141.7682 146.8828)"><use transform="matrix(0.007968 0 0 0.007968 0 0)" xlink:href="#f001-glyph-65-15"/></g></g>
		</g>
		<g>
			<g id="f001-page1_4_" transform="matrix(0.996 0 0 0.996 0 0)">
				<g transform="matrix(1.004 0 0 1.004 54.7953 123.1442)"><use transform="matrix(0.007968 0 0 0.007968 0 0)" xlink:href="#f001-glyph-66-15"/></g><g transform="matrix(1.004 0 0 1.004 54.7953 127.1445)"><use transform="matrix(0.007968 0 0 0.007968 0 0)" xlink:href="#f001-glyph-67-15"/></g><g transform="matrix(1.004 0 0 1.004 54.7953 131.1444)"><use transform="matrix(0.007968 0 0 0.007968 0 0)" xlink:href="#f001-glyph-68-15"/></g></g>
		</g>
		<path fill="#FFFFFF" d="M0.764,105.893c0-44.717,9.405-80.963,21.003-80.963s21.002,36.246,21.002,80.963l0,0    c0,44.71-9.404,80.963-21.002,80.963S0.764,150.603,0.764,105.893z" opacity="0.5"/>
		<path fill="#FFFFFF" d="M242.223,113.28c0-44.71,9.404-80.963,21.002-80.963s21.002,36.253,21.002,80.963l0,0    c0,44.717-9.404,80.963-21.002,80.963S242.223,157.997,242.223,113.28z" opacity="0.5"/>
		<g>
			<g transform="matrix(1 0 0 1 17.4226 109.1666)"><use transform="matrix(0.008 0 0 0.008 0 0)" xlink:href="#f001-glyph-69-3745"/></g><g transform="matrix(1 0 0 1 21.9346 111.0066)"><use transform="matrix(0.006 0 0 0.006 0 0)" xlink:href="#f001-glyph-70-3730"/></g></g>
		<g>
			<g transform="matrix(1 0 0 1 257.5263 116.5602)"><use transform="matrix(0.008 0 0 0.008 0 0)" xlink:href="#f001-glyph-71-3746"/></g><g transform="matrix(1 0 0 1 261.8623 118.4001)"><use transform="matrix(0.006 0 0 0.006 0 0)" xlink:href="#f001-glyph-72-3730"/></g></g>
	</g>


</svg>